<svg width="304" height="144" viewBox="0 0 304 144" fill="none" xmlns="http://www.w3.org/2000/svg">
<g filter="url(#filter0_d)">
<rect x="24" y="12" width="256" height="96" rx="8" fill="white"/>
<path opacity="0.72" d="M137.426 35C137.048 32.9119 135.378 31.679 133.33 31.679C130.724 31.679 128.835 33.6875 128.835 36.9091C128.835 40.1307 130.724 42.1392 133.33 42.1392C135.378 42.1392 137.048 40.9062 137.426 38.8182H136.193C135.895 40.2301 134.682 40.9858 133.33 40.9858C131.48 40.9858 130.028 39.554 130.028 36.9091C130.028 34.2642 131.48 32.8324 133.33 32.8324C134.682 32.8324 135.895 33.5881 136.193 35H137.426ZM140.433 31.8182H139.259V42H140.433V31.8182ZM144.829 42.179C146.161 42.179 146.857 41.4631 147.096 40.9659H147.156V42H148.329V36.9688C148.329 34.5426 146.479 34.2642 145.505 34.2642C144.352 34.2642 143.039 34.6619 142.442 36.054L143.556 36.4517C143.815 35.8949 144.426 35.2983 145.545 35.2983C146.624 35.2983 147.156 35.87 147.156 36.8494V36.8892C147.156 37.456 146.579 37.4062 145.187 37.5852C143.77 37.7692 142.224 38.0824 142.224 39.8324C142.224 41.3239 143.377 42.179 144.829 42.179ZM145.008 41.125C144.073 41.125 143.397 40.7074 143.397 39.892C143.397 38.9972 144.212 38.7188 145.127 38.5994C145.624 38.5398 146.957 38.4006 147.156 38.1619V39.2358C147.156 40.1903 146.4 41.125 145.008 41.125ZM155.879 36.0739C155.512 34.9901 154.686 34.2642 153.175 34.2642C151.564 34.2642 150.371 35.179 150.371 36.4716C150.371 37.5256 150.997 38.2315 152.399 38.5597L153.672 38.858C154.443 39.0369 154.806 39.4048 154.806 39.9318C154.806 40.5881 154.11 41.125 153.016 41.125C152.056 41.125 151.455 40.7124 151.246 39.892L150.132 40.1705C150.406 41.468 151.475 42.1591 153.036 42.1591C154.811 42.1591 156.019 41.1896 156.019 39.8722C156.019 38.8082 155.352 38.1371 153.99 37.804L152.857 37.5256C151.952 37.3018 151.544 36.9986 151.544 36.4119C151.544 35.7557 152.24 35.2784 153.175 35.2784C154.199 35.2784 154.622 35.8452 154.825 36.3722L155.879 36.0739ZM163.194 36.0739C162.826 34.9901 162.001 34.2642 160.489 34.2642C158.879 34.2642 157.685 35.179 157.685 36.4716C157.685 37.5256 158.312 38.2315 159.714 38.5597L160.987 38.858C161.757 39.0369 162.12 39.4048 162.12 39.9318C162.12 40.5881 161.424 41.125 160.33 41.125C159.371 41.125 158.769 40.7124 158.56 39.892L157.447 40.1705C157.72 41.468 158.789 42.1591 160.35 42.1591C162.125 42.1591 163.333 41.1896 163.333 39.8722C163.333 38.8082 162.667 38.1371 161.305 37.804L160.171 37.5256C159.266 37.3018 158.859 36.9986 158.859 36.4119C158.859 35.7557 159.555 35.2784 160.489 35.2784C161.513 35.2784 161.936 35.8452 162.14 36.3722L163.194 36.0739ZM168.301 42.1591C169.852 42.1591 170.986 41.3835 171.344 40.2301L170.21 39.9119C169.912 40.7074 169.221 41.1051 168.301 41.1051C166.924 41.1051 165.974 40.2152 165.92 38.5795H171.463V38.0824C171.463 35.2386 169.773 34.2642 168.182 34.2642C166.113 34.2642 164.741 35.8949 164.741 38.2415C164.741 40.5881 166.094 42.1591 168.301 42.1591ZM165.92 37.5653C165.999 36.3771 166.839 35.3182 168.182 35.3182C169.454 35.3182 170.27 36.2727 170.27 37.5653H165.92ZM178.657 36.0739C178.289 34.9901 177.464 34.2642 175.952 34.2642C174.341 34.2642 173.148 35.179 173.148 36.4716C173.148 37.5256 173.775 38.2315 175.177 38.5597L176.449 38.858C177.22 39.0369 177.583 39.4048 177.583 39.9318C177.583 40.5881 176.887 41.125 175.793 41.125C174.834 41.125 174.232 40.7124 174.023 39.892L172.91 40.1705C173.183 41.468 174.252 42.1591 175.813 42.1591C177.588 42.1591 178.796 41.1896 178.796 39.8722C178.796 38.8082 178.13 38.1371 176.768 37.804L175.634 37.5256C174.729 37.3018 174.322 36.9986 174.322 36.4119C174.322 35.7557 175.018 35.2784 175.952 35.2784C176.976 35.2784 177.399 35.8452 177.603 36.3722L178.657 36.0739ZM192.733 31.8182H191.52V39.8324H191.42L185.852 31.8182H184.659V42H185.892V34.0057H185.991L191.539 42H192.733V31.8182ZM198.242 42.1591C199.794 42.1591 200.927 41.3835 201.285 40.2301L200.151 39.9119C199.853 40.7074 199.162 41.1051 198.242 41.1051C196.865 41.1051 195.916 40.2152 195.861 38.5795H201.404V38.0824C201.404 35.2386 199.714 34.2642 198.123 34.2642C196.055 34.2642 194.683 35.8949 194.683 38.2415C194.683 40.5881 196.035 42.1591 198.242 42.1591ZM195.861 37.5653C195.941 36.3771 196.781 35.3182 198.123 35.3182C199.396 35.3182 200.211 36.2727 200.211 37.5653H195.861ZM205.436 42.179C206.769 42.179 207.465 41.4631 207.703 40.9659H207.763V42H208.936V36.9688C208.936 34.5426 207.087 34.2642 206.112 34.2642C204.959 34.2642 203.646 34.6619 203.05 36.054L204.164 36.4517C204.422 35.8949 205.034 35.2983 206.152 35.2983C207.231 35.2983 207.763 35.87 207.763 36.8494V36.8892C207.763 37.456 207.186 37.4062 205.794 37.5852C204.377 37.7692 202.831 38.0824 202.831 39.8324C202.831 41.3239 203.985 42.179 205.436 42.179ZM205.615 41.125C204.681 41.125 204.004 40.7074 204.004 39.892C204.004 38.9972 204.82 38.7188 205.735 38.5994C206.232 38.5398 207.564 38.4006 207.763 38.1619V39.2358C207.763 40.1903 207.007 41.125 205.615 41.125ZM211.078 42H212.251V37.1676C212.251 36.1335 213.066 35.3778 214.18 35.3778C214.493 35.3778 214.816 35.4375 214.896 35.4574V34.2642C214.762 34.2543 214.453 34.2443 214.279 34.2443C213.365 34.2443 212.569 34.7614 212.291 35.517H212.211V34.3636H211.078V42ZM220.383 31.8182V42H221.537V34.2642H221.636L224.818 42H225.932L229.113 34.2642H229.213V42H230.366V31.8182H228.895L225.434 40.2699H225.315L221.855 31.8182H220.383ZM235.881 42.1591C237.432 42.1591 238.566 41.3835 238.924 40.2301L237.79 39.9119C237.492 40.7074 236.801 41.1051 235.881 41.1051C234.504 41.1051 233.554 40.2152 233.5 38.5795H239.043V38.0824C239.043 35.2386 237.353 34.2642 235.762 34.2642C233.694 34.2642 232.321 35.8949 232.321 38.2415C232.321 40.5881 233.674 42.1591 235.881 42.1591ZM233.5 37.5653C233.579 36.3771 234.419 35.3182 235.762 35.3182C237.034 35.3182 237.85 36.2727 237.85 37.5653H233.5Z" fill="#060B11"/>
<path d="M129.886 84H146.477V79.9773H136.705V79.8182L140.102 76.4886C144.886 72.125 146.17 69.9432 146.17 67.2955C146.17 63.2614 142.875 60.4091 137.886 60.4091C133 60.4091 129.648 63.3295 129.659 67.8977H134.33C134.318 65.6705 135.727 64.3068 137.852 64.3068C139.898 64.3068 141.42 65.5795 141.42 67.625C141.42 69.4773 140.284 70.75 138.17 72.7841L129.886 80.4545V84ZM149.19 79.9091H160.361V84H165.065V79.9091H167.952V75.9659H165.065V60.7273H158.906L149.19 76.0341V79.9091ZM160.452 75.9659H154.145V75.7841L160.27 66.0909H160.452V75.9659ZM178.185 80.4545H182.253V74.4432H188.264V70.375H182.253V64.3636H178.185V70.375H172.173V74.4432H178.185V80.4545Z" fill="#060B11"/>
<g opacity="0.2" filter="url(#filter1_b)">
<rect x="40" y="28" width="64" height="64" rx="4" fill="#FF6F6F"/>
</g>
</g>
<path d="M86.6667 52L74 64.6667L67.3334 58L57.3334 68" stroke="#CA3026" stroke-width="2" stroke-linecap="round" stroke-linejoin="round"/>
<path d="M78.6666 52H86.6666V60" stroke="#CA3026" stroke-width="2" stroke-linecap="round" stroke-linejoin="round"/>
<defs>
<filter id="filter0_d" x="0" y="0" width="304" height="144" filterUnits="userSpaceOnUse" color-interpolation-filters="sRGB">
<feFlood flood-opacity="0" result="BackgroundImageFix"/>
<feColorMatrix in="SourceAlpha" type="matrix" values="0 0 0 0 0 0 0 0 0 0 0 0 0 0 0 0 0 0 127 0" result="hardAlpha"/>
<feOffset dy="12"/>
<feGaussianBlur stdDeviation="12"/>
<feColorMatrix type="matrix" values="0 0 0 0 0 0 0 0 0 0 0 0 0 0 0 0 0 0 0.08 0"/>
<feBlend mode="normal" in2="BackgroundImageFix" result="effect1_dropShadow"/>
<feBlend mode="normal" in="SourceGraphic" in2="effect1_dropShadow" result="shape"/>
</filter>
<filter id="filter1_b" x="16" y="4" width="112" height="112" filterUnits="userSpaceOnUse" color-interpolation-filters="sRGB">
<feFlood flood-opacity="0" result="BackgroundImageFix"/>
<feGaussianBlur in="BackgroundImage" stdDeviation="12"/>
<feComposite in2="SourceAlpha" operator="in" result="effect1_backgroundBlur"/>
<feBlend mode="normal" in="SourceGraphic" in2="effect1_backgroundBlur" result="shape"/>
</filter>
</defs>
</svg>
