<svg width="333" height="198" viewBox="0 0 333 198" fill="none" xmlns="http://www.w3.org/2000/svg">
<path opacity="0.4" d="M117 151V158.5H125.5V165" stroke="white"/>
<path opacity="0.4" d="M182.5 49V64.5H187.5V74.5H180V86.5" stroke="white"/>
<path opacity="0.4" d="M229.5 72V89H256" stroke="white"/>
<path opacity="0.4" d="M195.5 188.5H183V171.5H178.5" stroke="white"/>
<path opacity="0.4" d="M107.5 95.5V123H118.5" stroke="white"/>
<path opacity="0.4" d="M90 149.5H107V135H116" stroke="white"/>
<path opacity="0.4" d="M98 162V171H113" stroke="white"/>
<path opacity="0.4" d="M115 39V48H130" stroke="white"/>
<path opacity="0.4" d="M111.5 140.5H123.5V130" stroke="white"/>
<path opacity="0.4" d="M108.5 166.5H117.5V179H104.5V184" stroke="white"/>
<path opacity="0.4" d="M125.5 43.5H134.5V56H121.5V61" stroke="white"/>
<path opacity="0.4" d="M28 166V183H37.5V177.5H43.5" stroke="white"/>
<path opacity="0.4" d="M36.5 144.5H29V154.5H36.5" stroke="white"/>
<path opacity="0.4" d="M8.5 98H1V108H8.5" stroke="white"/>
<path opacity="0.4" d="M67.5 162H92V177H53V162H43" stroke="white"/>
<path opacity="0.4" d="M39.5 115.5H64V130.5H25V115.5H15" stroke="white"/>
<path opacity="0.4" d="M286 57.5H236.5V82H309V16.5H323V57.5" stroke="white"/>
<path opacity="0.4" d="M13 198V138H86M147.5 69.5H184.5" stroke="white"/>
<path opacity="0.4" d="M99 144V86.1012H142.417V20H201" stroke="white"/>
<path opacity="0.4" d="M264 32H296V70H289.77" stroke="white"/>
<path opacity="0.4" d="M23.5 149V188.5H142.5V119H180.5V136H217V107.5H251V149H240V164.5" stroke="white"/>
<path opacity="0.4" d="M247 156V168.5H231.5V148.5H207.5V176H194" stroke="white"/>
<path opacity="0.4" d="M148.5 125.5V149V163.5" stroke="white"/>
<path opacity="0.4" d="M148.5 125.5H174V142.5H185V153.5" stroke="white"/>
<path opacity="0.4" d="M33.5 150.5H60V168.5H84.5" stroke="white"/>
<path opacity="0.4" d="M5.5 104H32V122H56.5" stroke="white"/>
<path opacity="0.4" d="M278.5 41H255V21.5H287V6" stroke="white"/>
<path opacity="0.4" d="M178 149.5V162.5H193.5V142" stroke="white"/>
<path opacity="0.4" d="M154.5 142V174H165" stroke="white"/>
<path opacity="0.4" d="M149 182H170V167.5H161.5V159" stroke="white"/>
<path opacity="0.4" d="M280 15.5V0.5H296V18" stroke="white"/>
<path opacity="0.4" d="M242.5 63.5V75.5H265V69H272V75.5H281" stroke="white"/>
<path opacity="0.4" d="M247.5 61.5V70.5H253.5V66.5" stroke="white"/>
<path opacity="0.4" d="M224 115.5V135.5H237.5V127H244.5" stroke="white"/>
<path opacity="0.4" d="M187.5 182.5H219V192H243V186.5H254.5V192H271.5V178.5H283.5V192H297.5" stroke="white"/>
<path opacity="0.4" d="M149.5 189.5H162V194H170.5V189.5H176.5V182.5" stroke="white"/>
<path opacity="0.4" d="M204.5 187.5V194H209.5V187.5" stroke="white"/>
<path opacity="0.4" d="M137 161.5V172.5H131V180H137V184.5H125.5" stroke="white"/>
<path opacity="0.4" d="M278.5 94.5V124H292V142.5" stroke="white"/>
<path opacity="0.4" d="M301.5 88V101H328.5V74.5H320.5" stroke="white"/>
<path opacity="0.4" d="M286.5 118.5H298V130H307" stroke="white"/>
<path opacity="0.4" d="M308.5 89.5V95H319V87" stroke="white"/>
<path opacity="0.4" d="M257 122V135H264.5" stroke="white"/>
<path opacity="0.4" d="M278.5 174H289.5V184.5" stroke="white"/>
<path opacity="0.4" d="M257 146V157H266.5" stroke="white"/>
<path opacity="0.4" d="M243 180.5H254.5V176" stroke="white"/>
<path opacity="0.4" d="M217 155.5V166H223V172.5H214V176.5" stroke="white"/>
<path opacity="0.4" d="M229 176.5V185.5H224.5" stroke="white"/>
<path opacity="0.4" d="M263.5 152.5H272V162H260" stroke="white"/>
<path opacity="0.4" d="M285.5 140V148H298V139" stroke="white"/>
<path opacity="0.4" d="M315 105.5V117.5H321" stroke="white"/>
<path opacity="0.4" d="M290.5 114H303V123.5" stroke="white"/>
<path opacity="0.4" d="M325.5 150V166.5H332.5V174.5H321V182.5" stroke="white"/>
<path opacity="0.4" d="M304 169V182H311V159.5H318" stroke="white"/>
<path opacity="0.4" d="M282 158H294V163.5H298" stroke="white"/>
<path opacity="0.4" d="M285.5 153.5H279V161.5H285.5" stroke="white"/>
<path opacity="0.4" d="M330 123.5V132H325.5V139.5H330" stroke="white"/>
<path opacity="0.4" d="M305.5 137V146.5H313.5V141.5" stroke="white"/>
<path opacity="0.4" d="M320.5 123.5H315V132H320.5V139" stroke="white"/>
<path opacity="0.4" d="M266.5 97V105H259V100.5" stroke="white"/>
<path opacity="0.4" d="M268 114.5V124H262" stroke="white"/>
<path opacity="0.4" d="M152.5 48V76.5H162" stroke="white"/>
<path opacity="0.4" d="M157 81.5H167V91H162.5" stroke="white"/>
<path opacity="0.4" d="M177 59V42.5H187.5V56H194.5" stroke="white"/>
<path opacity="0.4" d="M169 112.5C170.2 112.5 181.5 112.5 187 112.5V126H198" stroke="white"/>
<path opacity="0.4" d="M211 99V118.5H205.5" stroke="white"/>
<path opacity="0.4" d="M195 132H208V128" stroke="white"/>
<path opacity="0.4" d="M204 123.5H212" stroke="white"/>
<path opacity="0.4" d="M134.5 112.5V131.5" stroke="white"/>
<path opacity="0.4" d="M134.5 112.5H151" stroke="white"/>
<path opacity="0.4" d="M121.5 96.5V105.5H135V101.5" stroke="white"/>
<path opacity="0.4" d="M115.5 104V93.5H128V101.5" stroke="white"/>
<path opacity="0.4" d="M216.5 31V54.5H225V46.5" stroke="white"/>
<path opacity="0.4" d="M195 69.5V85.5H188V96.5" stroke="white"/>
<path opacity="0.4" d="M180.5 93.5V100H196V93.5" stroke="white"/>
<path opacity="0.4" d="M144.5 94V102.5H156.5V107.5" stroke="white"/>
<path opacity="0.4" d="M172.5 88.5V95H168.5V100H173V105.5H163.5" stroke="white"/>
<path opacity="0.4" d="M147.5 56H159V41H164" stroke="white"/>
<path opacity="0.4" d="M158.5 37.5H169.5V49H165.5" stroke="white"/>
<path opacity="0.4" d="M208 72V88H215.5V72" stroke="white"/>
<path opacity="0.4" d="M202 46.5V60H210V65" stroke="white"/>
<path opacity="0.4" d="M107.5 81H93V86" stroke="white"/>
<path opacity="0.4" d="M126 74H136.5V82.5H126" stroke="white"/>
<path opacity="0.4" d="M93 105.5V113H85" stroke="white"/>
<path opacity="0.4" d="M81 133.5H91V144H77" stroke="white"/>
<path opacity="0.4" d="M70 149.5V155.5H80V149.5" stroke="white"/>
<path opacity="0.4" d="M42 103V109H52V103" stroke="white"/>
<path opacity="0.4" d="M184.5 27H194.5V30.5H199.5V27H206V12H180.5" stroke="white"/>
</svg>
