<svg width="360" height="364" viewBox="0 0 360 364" fill="none" xmlns="http://www.w3.org/2000/svg">
<path opacity="0.4" d="M216 317V324.5H207.5V331" stroke="white"/>
<path opacity="0.4" d="M276 228V235.5H267.5V242" stroke="white"/>
<path opacity="0.4" d="M150.498 215V230.5H145.498V240.5H152.998V252.5" stroke="white"/>
<path opacity="0.4" d="M134.998 111V126.5H129.998V136.5H137.498V148.5" stroke="white"/>
<path opacity="0.4" d="M103.5 238V255H77" stroke="white"/>
<path opacity="0.4" d="M137.502 354.5H150.002V337.5H154.502" stroke="white"/>
<path opacity="0.4" d="M225.502 261.5V289H214.502" stroke="white"/>
<path opacity="0.4" d="M262 296.5L262 269L273 269" stroke="white"/>
<path opacity="0.4" d="M242.998 315.5H225.998V301H216.998" stroke="white"/>
<path opacity="0.4" d="M302.998 226.5H285.998V212H276.998" stroke="white"/>
<path opacity="0.4" d="M235.002 328V337H220.002" stroke="white"/>
<path opacity="0.4" d="M295.002 239V248H280.002" stroke="white"/>
<path opacity="0.4" d="M221.502 306.5H209.502V296" stroke="white"/>
<path opacity="0.4" d="M281.502 217.5H269.502V207" stroke="white"/>
<path opacity="0.4" d="M224.5 332.5H215.5V345H228.5V350" stroke="white"/>
<path opacity="0.4" d="M284.5 243.5H275.5V256H288.5V261" stroke="white"/>
<path opacity="0.4" d="M305.002 332V349H295.502V343.5H289.502" stroke="white"/>
<path opacity="0.4" d="M296.498 310.5H303.998V320.5H296.498" stroke="white"/>
<path opacity="0.4" d="M265.5 328H241V343H280V328H290" stroke="white"/>
<path opacity="0.4" d="M47 223.5H96.5V248H24V182.5H9.99999V223.5" stroke="white"/>
<path opacity="0.4" d="M319.998 364V304H246.998" stroke="white"/>
<path opacity="0.4" d="M234 310V252.101H190.583V186H132" stroke="white"/>
<path opacity="0.4" d="M69 198H37V236H43.2295" stroke="white"/>
<path opacity="0.4" d="M309.5 315V354.5H190.5V285H152.5V302H116V273.5H82V315H93V330.5" stroke="white"/>
<path opacity="0.4" d="M86.002 322V334.5H101.502V314.5H125.502V342H139.002" stroke="white"/>
<path opacity="0.4" d="M307 281.5V294H322.5V274H346.5V301.5H360" stroke="white"/>
<path opacity="0.4" d="M184.5 291.5V315V329.5" stroke="white"/>
<path opacity="0.4" d="M184.5 291.5H159V308.5H148V319.5" stroke="white"/>
<path opacity="0.4" d="M299.5 316.5H273V334.5H248.5" stroke="white"/>
<path opacity="0.4" d="M54.5 207H78V187.5H46V172" stroke="white"/>
<path opacity="0.4" d="M155 315.5V328.5H139.5V308" stroke="white"/>
<path opacity="0.4" d="M178.5 308V340H168" stroke="white"/>
<path opacity="0.4" d="M184 348H163V333.5H171.5V325" stroke="white"/>
<path opacity="0.4" d="M53 181.5V166.5H37V184" stroke="white"/>
<path opacity="0.4" d="M90.502 229.5V241.5H68.002V235H61.002V241.5H52.002" stroke="white"/>
<path opacity="0.4" d="M96 175.5L84 175.5L84 153L90.5 153L90.5 146L84 146L84 137" stroke="white"/>
<path opacity="0.4" d="M85.5 227.5V236.5H79.5V232.5" stroke="white"/>
<path opacity="0.4" d="M78 150L69 150L69 144L73 144" stroke="white"/>
<path opacity="0.4" d="M78 85L69 85L69 79L73 79" stroke="white"/>
<path opacity="0.4" d="M98 170.498L89 170.498L89 164.498L93 164.498" stroke="white"/>
<path opacity="0.4" d="M108.998 281.5V301.5H95.498V293H88.498" stroke="white"/>
<path opacity="0.4" d="M145.5 348.5H114V358H90V352.5H78.5V358H61.5V344.5H49.5V358H35.5" stroke="white"/>
<path opacity="0.4" d="M183.502 355.5H171.002V360H162.502V355.5H156.502V348.5" stroke="white"/>
<path opacity="0.4" d="M128.5 353.5V360H123.5V353.5" stroke="white"/>
<path opacity="0.4" d="M196 327.5V338.5H202V346H196V350.5H207.5" stroke="white"/>
<path opacity="0.4" d="M256 238.5V249.5H262V257H256V261.5H267.5" stroke="white"/>
<path opacity="0.4" d="M54.5 260.5V290H41V308.5" stroke="white"/>
<path opacity="0.4" d="M51.5 17V46.5H38V65" stroke="white"/>
<path opacity="0.4" d="M54.5 102V131.5H41V150" stroke="white"/>
<path opacity="0.4" d="M31.498 254V267H4.49805V240.5H12.498" stroke="white"/>
<path opacity="0.4" d="M31.498 19.5V32.5H4.49805V6H12.498" stroke="white"/>
<path opacity="0.4" d="M46.5 284.5H35V296H26" stroke="white"/>
<path opacity="0.4" d="M46.5 118H35V129.5H26" stroke="white"/>
<path opacity="0.4" d="M24.5 255.5V261H14V253" stroke="white"/>
<path opacity="0.4" d="M24.5 21V26.5H14V18.5" stroke="white"/>
<path opacity="0.4" d="M76 288V301H68.5" stroke="white"/>
<path opacity="0.4" d="M76 113.5V126.5H68.5" stroke="white"/>
<path opacity="0.4" d="M54.5 340H43.5V350.5" stroke="white"/>
<path opacity="0.4" d="M76 312V323H66.5" stroke="white"/>
<path opacity="0.4" d="M347.07 309.903H336.07V300.403" stroke="white"/>
<path opacity="0.4" d="M110 91V102H100.5" stroke="white"/>
<path opacity="0.4" d="M89.998 346.5H78.498V342" stroke="white"/>
<path opacity="0.4" d="M116 321.5V332H110V338.5H119V342.5" stroke="white"/>
<path opacity="0.4" d="M332 340V350.5H326V357H335V361" stroke="white"/>
<path opacity="0.4" d="M104 342.5V351.5H108.5" stroke="white"/>
<path opacity="0.4" d="M69.5 318.5H61V328H73" stroke="white"/>
<path opacity="0.4" d="M340.5 289.5V281H331V293" stroke="white"/>
<path opacity="0.4" d="M103.5 97.5H95V107H107" stroke="white"/>
<path opacity="0.4" d="M47.5 306V314H35V305" stroke="white"/>
<path opacity="0.4" d="M44.5 62.5V70.5H32V61.5" stroke="white"/>
<path opacity="0.4" d="M18 271.5V283.5H12" stroke="white"/>
<path opacity="0.4" d="M18 37V49H12" stroke="white"/>
<path opacity="0.4" d="M18 97V109H12" stroke="white"/>
<path opacity="0.4" d="M42.502 280H30.002V289.5" stroke="white"/>
<path opacity="0.4" d="M35 98L35 110.5L44.5 110.5" stroke="white"/>
<path opacity="0.4" d="M7.5 316V332.5H0.5V340.5H12V348.5" stroke="white"/>
<path opacity="0.4" d="M7.5 141.5V158H0.5V166H12V174" stroke="white"/>
<path opacity="0.4" d="M29 335V348H22V325.5H15" stroke="white"/>
<path opacity="0.4" d="M344 335V348H337V325.5H330" stroke="white"/>
<path opacity="0.4" d="M29 160.5V173.5H22V151H15" stroke="white"/>
<path opacity="0.4" d="M51 324H39V329.5H35" stroke="white"/>
<path opacity="0.4" d="M186 173.5H174V179H170" stroke="white"/>
<path opacity="0.4" d="M48 80.5H36V86H32" stroke="white"/>
<path opacity="0.4" d="M6 85.5L18 85.5L18 80L22 80" stroke="white"/>
<path opacity="0.4" d="M44.5 76H51V84H44.5" stroke="white"/>
<path opacity="0.4" d="M47.5 319.5H54V327.5H47.5" stroke="white"/>
<path opacity="0.4" d="M182.5 169H189V177H182.5" stroke="white"/>
<path opacity="0.4" d="M9.5 90L3 90L3 82L9.5 82" stroke="white"/>
<path opacity="0.4" d="M3 289.5V298H7.5V305.5H3" stroke="white"/>
<path opacity="0.4" d="M3 55V63.5H7.5V71H3" stroke="white"/>
<path opacity="0.4" d="M3 115V123.5H7.5V131H3" stroke="white"/>
<path opacity="0.4" d="M27.5 303V312.5H19.5V307.5" stroke="white"/>
<path opacity="0.4" d="M12.5 289.5H18V298H12.5V305" stroke="white"/>
<path opacity="0.4" d="M12.5 55H18V63.5H12.5V70.5" stroke="white"/>
<path opacity="0.4" d="M12.5 115H18V123.5H12.5V130.5" stroke="white"/>
<path opacity="0.4" d="M69 261V269H76.5V264.5" stroke="white"/>
<path opacity="0.4" d="M153.5 169L153.5 161L146 161L146 165.5" stroke="white"/>
<path opacity="0.4" d="M64.998 280.5V290H70.998" stroke="white"/>
<path opacity="0.4" d="M157.502 149.5L157.502 140L151.502 140" stroke="white"/>
<path opacity="0.4" d="M61.998 37V46.5H67.998" stroke="white"/>
<path opacity="0.4" d="M180.5 214V242.5H171" stroke="white"/>
<path opacity="0.4" d="M176 247.5H166V257H170.5" stroke="white"/>
<path opacity="0.4" d="M156 225V208.5H145.5V222H138.5" stroke="white"/>
<path opacity="0.4" d="M164.002 278.5C162.802 278.5 151.502 278.5 146.002 278.5V292H135.002" stroke="white"/>
<path opacity="0.4" d="M122 265V284.5H127.5" stroke="white"/>
<path opacity="0.4" d="M106.5 161V180.5H112" stroke="white"/>
<path opacity="0.4" d="M138 298H125V294" stroke="white"/>
<path opacity="0.4" d="M129 289.5H121" stroke="white"/>
<path opacity="0.4" d="M113.5 185.5H105.5" stroke="white"/>
<path opacity="0.4" d="M198.498 278.5V297.5" stroke="white"/>
<path opacity="0.4" d="M198.498 278.5H181.998" stroke="white"/>
<path opacity="0.4" d="M211.498 262.5V271.5H197.998V267.5" stroke="white"/>
<path opacity="0.4" d="M276.004 295L276.004 286L289.504 286L289.504 290" stroke="white"/>
<path opacity="0.4" d="M217.498 270V259.5H204.998V267.5" stroke="white"/>
<path opacity="0.4" d="M270.004 288L270.004 298.5L282.504 298.5L282.504 290.5" stroke="white"/>
<path opacity="0.4" d="M116.5 197V220.5H108V212.5" stroke="white"/>
<path opacity="0.4" d="M100 70L100 46.5L108.5 46.5L108.5 54.5" stroke="white"/>
<path opacity="0.4" d="M138.002 235.5V251.5H145.002V262.5" stroke="white"/>
<path opacity="0.4" d="M78.498 31.5L78.498 15.5L71.498 15.5L71.498 4.5" stroke="white"/>
<path opacity="0.4" d="M122.502 131.5V147.5H129.502V158.5" stroke="white"/>
<path opacity="0.4" d="M152.5 259.5V266H137V259.5" stroke="white"/>
<path opacity="0.4" d="M64 7.5L64 1L79.5 0.999999L79.5 7.5" stroke="white"/>
<path opacity="0.4" d="M137 155.5V162H121.5V155.5" stroke="white"/>
<path opacity="0.4" d="M188.5 260V268.5H176.5V273.5" stroke="white"/>
<path opacity="0.4" d="M160.5 254.5V261H164.5V266H160V271.5H169.5" stroke="white"/>
<path opacity="0.4" d="M185.5 222H174V207H169" stroke="white"/>
<path opacity="0.4" d="M174.5 203.5H163.5V215H167.5" stroke="white"/>
<path opacity="0.4" d="M125 238V254H117.5V238" stroke="white"/>
<path opacity="0.4" d="M91.5 29L91.5 13L99 13L99 29" stroke="white"/>
<path opacity="0.4" d="M109.5 134V150H102V134" stroke="white"/>
<path opacity="0.4" d="M130.998 212.5V226H122.998V231" stroke="white"/>
<path opacity="0.4" d="M85.502 54.5L85.502 41L93.502 41L93.502 36" stroke="white"/>
<path opacity="0.4" d="M225.5 247H240V252" stroke="white"/>
<path opacity="0.4" d="M207 240H196.5V248.5H207" stroke="white"/>
<path opacity="0.4" d="M240 271.5V279H248" stroke="white"/>
<path opacity="0.4" d="M252 299.5H242V310H256" stroke="white"/>
<path opacity="0.4" d="M263 315.5V321.5H253V315.5" stroke="white"/>
<path opacity="0.4" d="M148.5 193H138.5V196.5H133.5V193H127V178H152.5" stroke="white"/>
</svg>
