<svg width="320" height="144" viewBox="0 0 320 144" fill="none" xmlns="http://www.w3.org/2000/svg">
<g filter="url(#filter0_d)">
<rect x="24" y="12" width="272" height="96" rx="8" fill="white"/>
<path opacity="0.72" d="M128.358 31.8182L132.037 37.804V42H133.27V37.804L136.949 31.8182H135.537L132.713 36.571H132.594L129.77 31.8182H128.358ZM140.407 42.1591C142.475 42.1591 143.867 40.5881 143.867 38.2216C143.867 35.8352 142.475 34.2642 140.407 34.2642C138.338 34.2642 136.946 35.8352 136.946 38.2216C136.946 40.5881 138.338 42.1591 140.407 42.1591ZM140.407 41.1051C138.836 41.1051 138.12 39.7528 138.12 38.2216C138.12 36.6903 138.836 35.3182 140.407 35.3182C141.978 35.3182 142.694 36.6903 142.694 38.2216C142.694 39.7528 141.978 41.1051 140.407 41.1051ZM150.47 38.8778C150.47 40.3097 149.377 40.9659 148.502 40.9659C147.527 40.9659 146.831 40.25 146.831 39.1364V34.3636H145.658V39.2159C145.658 41.1648 146.692 42.0994 148.124 42.0994C149.277 42.0994 150.033 41.483 150.391 40.7074H150.47V42H151.644V34.3636H150.47V38.8778ZM153.793 42H154.966V37.1676C154.966 36.1335 155.781 35.3778 156.895 35.3778C157.208 35.3778 157.531 35.4375 157.611 35.4574V34.2642C157.477 34.2543 157.168 34.2443 156.994 34.2443C156.08 34.2443 155.284 34.7614 155.006 35.517H154.926V34.3636H153.793V42ZM163.098 42H169.323V40.9062H164.331V37.446H168.925V36.3523H164.331V32.9119H169.243V31.8182H163.098V42ZM173.553 42.179C174.886 42.179 175.582 41.4631 175.82 40.9659H175.88V42H177.053V36.9688C177.053 34.5426 175.204 34.2642 174.23 34.2642C173.076 34.2642 171.764 34.6619 171.167 36.054L172.281 36.4517C172.539 35.8949 173.151 35.2983 174.269 35.2983C175.348 35.2983 175.88 35.87 175.88 36.8494V36.8892C175.88 37.456 175.303 37.4062 173.911 37.5852C172.494 37.7692 170.948 38.0824 170.948 39.8324C170.948 41.3239 172.102 42.179 173.553 42.179ZM173.732 41.125C172.798 41.125 172.122 40.7074 172.122 39.892C172.122 38.9972 172.937 38.7188 173.852 38.5994C174.349 38.5398 175.681 38.4006 175.88 38.1619V39.2358C175.88 40.1903 175.124 41.125 173.732 41.125ZM179.195 42H180.368V37.1676C180.368 36.1335 181.184 35.3778 182.297 35.3778C182.61 35.3778 182.934 35.4375 183.013 35.4574V34.2642C182.879 34.2543 182.571 34.2443 182.397 34.2443C181.482 34.2443 180.686 34.7614 180.408 35.517H180.328V34.3636H179.195V42ZM185.577 37.4062C185.577 36.0739 186.403 35.3182 187.526 35.3182C188.615 35.3182 189.276 36.0291 189.276 37.2273V42H190.449V37.1477C190.449 35.1989 189.41 34.2642 187.864 34.2642C186.711 34.2642 185.995 34.7812 185.637 35.5568H185.537V34.3636H184.404V42H185.577V37.4062ZM192.593 42H193.767V34.3636H192.593V42ZM193.19 33.0909C193.647 33.0909 194.025 32.733 194.025 32.2955C194.025 31.858 193.647 31.5 193.19 31.5C192.733 31.5 192.355 31.858 192.355 32.2955C192.355 32.733 192.733 33.0909 193.19 33.0909ZM197.089 37.4062C197.089 36.0739 197.914 35.3182 199.038 35.3182C200.127 35.3182 200.788 36.0291 200.788 37.2273V42H201.961V37.1477C201.961 35.1989 200.922 34.2642 199.376 34.2642C198.222 34.2642 197.507 34.7812 197.149 35.5568H197.049V34.3636H195.916V42H197.089V37.4062ZM207.188 45.0227C209.017 45.0227 210.489 44.1875 210.489 42.2188V34.3636H209.355V35.5767H209.236C208.977 35.179 208.5 34.2642 207.009 34.2642C205.08 34.2642 203.747 35.7955 203.747 38.142C203.747 40.5284 205.139 41.8807 206.989 41.8807C208.48 41.8807 208.957 41.0057 209.216 40.5881H209.315V42.1392C209.315 43.4119 208.42 43.9886 207.188 43.9886C205.8 43.9886 205.313 43.2578 205 42.8352L204.065 43.4915C204.543 44.2919 205.482 45.0227 207.188 45.0227ZM207.148 40.8267C205.676 40.8267 204.92 39.7131 204.92 38.1222C204.92 36.571 205.656 35.3182 207.148 35.3182C208.58 35.3182 209.335 36.4716 209.335 38.1222C209.335 39.8125 208.56 40.8267 207.148 40.8267Z" fill="#060B11"/>
<path d="M130.023 84H134.943V75.75H138.534L142.943 84H148.375L143.432 74.9545C146.08 73.8182 147.545 71.5114 147.545 68.3295C147.545 63.7045 144.489 60.7273 139.205 60.7273H130.023V84ZM134.943 71.7955V64.75H138.261C141.102 64.75 142.477 66.0114 142.477 68.3295C142.477 70.6364 141.102 71.7955 138.284 71.7955H134.943ZM165.455 71.5227C165.023 68.3068 162.432 66.3182 158.023 66.3182C153.557 66.3182 150.614 68.3864 150.625 71.75C150.614 74.3636 152.261 76.0568 155.67 76.7386L158.693 77.3409C160.216 77.6477 160.909 78.2045 160.932 79.0795C160.909 80.1136 159.784 80.8523 158.091 80.8523C156.364 80.8523 155.216 80.1136 154.92 78.6932L150.159 78.9432C150.614 82.2841 153.455 84.3409 158.08 84.3409C162.602 84.3409 165.841 82.0341 165.852 78.5909C165.841 76.0682 164.193 74.5568 160.807 73.8636L157.648 73.2273C156.023 72.875 155.42 72.3182 155.432 71.4773C155.42 70.4318 156.602 69.75 158.102 69.75C159.784 69.75 160.784 70.6705 161.023 71.7955L165.455 71.5227ZM168.503 79.9091H179.673V84H184.378V79.9091H187.264V75.9659H184.378V60.7273H178.219L168.503 76.0341V79.9091ZM179.764 75.9659H173.457V75.7841L179.582 66.0909H179.764V75.9659ZM191.463 84H196.543L206.202 64.8068V60.7273H189.872V64.75H201.111V64.9091L191.463 84ZM207.347 79.9091H218.517V84H223.222V79.9091H226.108V75.9659H223.222V60.7273H217.062L207.347 76.0341V79.9091ZM218.608 75.9659H212.301V75.7841L218.426 66.0909H218.608V75.9659ZM238.511 84.5114C244.364 84.5114 247.898 80.0568 247.909 72.3864C247.92 64.7727 244.341 60.4091 238.511 60.4091C232.67 60.4091 229.125 64.7614 229.114 72.3864C229.091 80.0341 232.648 84.5 238.511 84.5114ZM238.511 80.4318C235.841 80.4318 234.114 77.75 234.125 72.3864C234.136 67.1023 235.852 64.4432 238.511 64.4432C241.159 64.4432 242.886 67.1023 242.886 72.3864C242.898 77.75 241.17 80.4318 238.511 80.4318ZM260.543 84.5114C266.395 84.5114 269.929 80.0568 269.94 72.3864C269.952 64.7727 266.372 60.4091 260.543 60.4091C254.702 60.4091 251.156 64.7614 251.145 72.3864C251.122 80.0341 254.679 84.5 260.543 84.5114ZM260.543 80.4318C257.872 80.4318 256.145 77.75 256.156 72.3864C256.168 67.1023 257.884 64.4432 260.543 64.4432C263.19 64.4432 264.918 67.1023 264.918 72.3864C264.929 77.75 263.202 80.4318 260.543 80.4318Z" fill="#060B11"/>
<g opacity="0.2" filter="url(#filter1_b)">
<rect x="40" y="28" width="64" height="64" rx="4" fill="#33E34F"/>
</g>
<path d="M72 45.3333V74.6667" stroke="#0C722F" stroke-width="2" stroke-linecap="round" stroke-linejoin="round"/>
<path d="M78.6667 50.6667H68.6667C67.429 50.6667 66.242 51.1583 65.3668 52.0335C64.4917 52.9087 64 54.0957 64 55.3333C64 56.571 64.4917 57.758 65.3668 58.6332C66.242 59.5083 67.429 60 68.6667 60H75.3333C76.571 60 77.758 60.4917 78.6332 61.3668C79.5083 62.242 80 63.429 80 64.6667C80 65.9043 79.5083 67.0913 78.6332 67.9665C77.758 68.8417 76.571 69.3333 75.3333 69.3333H64" stroke="#0C722F" stroke-width="2" stroke-linecap="round" stroke-linejoin="round"/>
</g>
<defs>
<filter id="filter0_d" x="0" y="0" width="320" height="144" filterUnits="userSpaceOnUse" color-interpolation-filters="sRGB">
<feFlood flood-opacity="0" result="BackgroundImageFix"/>
<feColorMatrix in="SourceAlpha" type="matrix" values="0 0 0 0 0 0 0 0 0 0 0 0 0 0 0 0 0 0 127 0" result="hardAlpha"/>
<feOffset dy="12"/>
<feGaussianBlur stdDeviation="12"/>
<feColorMatrix type="matrix" values="0 0 0 0 0 0 0 0 0 0 0 0 0 0 0 0 0 0 0.08 0"/>
<feBlend mode="normal" in2="BackgroundImageFix" result="effect1_dropShadow"/>
<feBlend mode="normal" in="SourceGraphic" in2="effect1_dropShadow" result="shape"/>
</filter>
<filter id="filter1_b" x="16" y="4" width="112" height="112" filterUnits="userSpaceOnUse" color-interpolation-filters="sRGB">
<feFlood flood-opacity="0" result="BackgroundImageFix"/>
<feGaussianBlur in="BackgroundImage" stdDeviation="12"/>
<feComposite in2="SourceAlpha" operator="in" result="effect1_backgroundBlur"/>
<feBlend mode="normal" in="SourceGraphic" in2="effect1_backgroundBlur" result="shape"/>
</filter>
</defs>
</svg>
