<svg width="1440" height="852" viewBox="0 0 1440 852" fill="none" xmlns="http://www.w3.org/2000/svg">
<g filter="url(#filter0_d)">
<rect y="28" width="1440" height="823" fill="#5452F6"/>
</g>
<path opacity="0.4" d="M220 804V811.5H211.5V818" stroke="white"/>
<path opacity="0.4" d="M280 715V722.5H271.5V729" stroke="white"/>
<path opacity="0.4" d="M154.498 702V717.5H149.498V727.5H156.998V739.5" stroke="white"/>
<path opacity="0.4" d="M138.998 598V613.5H133.998V623.5H141.498V635.5" stroke="white"/>
<path opacity="0.4" d="M107.5 725V742H81" stroke="white"/>
<path opacity="0.4" d="M141.502 841.5H154.002V824.5H158.502" stroke="white"/>
<path opacity="0.4" d="M229.502 748.5V776H218.502" stroke="white"/>
<path opacity="0.4" d="M266 783.5L266 756L277 756" stroke="white"/>
<path opacity="0.4" d="M246.998 802.5H229.998V788H220.998" stroke="white"/>
<path opacity="0.4" d="M306.998 713.5H289.998V699H280.998" stroke="white"/>
<path opacity="0.4" d="M239.002 815V824H224.002" stroke="white"/>
<path opacity="0.4" d="M299.002 726V735H284.002" stroke="white"/>
<path opacity="0.4" d="M225.502 793.5H213.502V783" stroke="white"/>
<path opacity="0.4" d="M285.502 704.5H273.502V694" stroke="white"/>
<path opacity="0.4" d="M228.5 819.5H219.5V832H232.5V837" stroke="white"/>
<path opacity="0.4" d="M288.5 730.5H279.5V743H292.5V748" stroke="white"/>
<path opacity="0.4" d="M309.002 819V836H299.502V830.5H293.502" stroke="white"/>
<path opacity="0.4" d="M300.498 797.5H307.998V807.5H300.498" stroke="white"/>
<path opacity="0.4" d="M269.5 815H245V830H284V815H294" stroke="white"/>
<path opacity="0.4" d="M51 710.5H100.5V735H28V669.5H14V710.5" stroke="white"/>
<path opacity="0.4" d="M323.998 851V791H250.998" stroke="white"/>
<path opacity="0.4" d="M238 797V739.101H194.583V673H136" stroke="white"/>
<path opacity="0.4" d="M73 685H41V723H47.2295" stroke="white"/>
<path opacity="0.4" d="M313.5 802V841.5H194.5V772H156.5V789H120V760.5H86V802H97V817.5" stroke="white"/>
<path opacity="0.4" d="M90.002 809V821.5H105.502V801.5H129.502V829H143.002" stroke="white"/>
<path opacity="0.4" d="M311 768.5V781H326.5V761H350.5V788.5H364" stroke="white"/>
<path opacity="0.4" d="M188.5 778.5V802V816.5" stroke="white"/>
<path opacity="0.4" d="M188.5 778.5H163V795.5H152V806.5" stroke="white"/>
<path opacity="0.4" d="M303.5 803.5H277V821.5H252.5" stroke="white"/>
<path opacity="0.4" d="M58.5 694H82V674.5H50V659" stroke="white"/>
<path opacity="0.4" d="M159 802.5V815.5H143.5V795" stroke="white"/>
<path opacity="0.4" d="M182.5 795V827H172" stroke="white"/>
<path opacity="0.4" d="M188 835H167V820.5H175.5V812" stroke="white"/>
<path opacity="0.4" d="M57 668.5V653.5H41V671" stroke="white"/>
<path opacity="0.4" d="M94.502 716.5V728.5H72.002V722H65.002V728.5H56.002" stroke="white"/>
<path opacity="0.4" d="M100 662.5L88 662.5L88 640L94.5 640L94.5 633L88 633L88 624" stroke="white"/>
<path opacity="0.4" d="M89.5 714.5V723.5H83.5V719.5" stroke="white"/>
<path opacity="0.4" d="M82 637L73 637L73 631L77 631" stroke="white"/>
<path opacity="0.4" d="M82 572L73 572L73 566L77 566" stroke="white"/>
<path opacity="0.4" d="M102 657.498L93 657.498L93 651.498L97 651.498" stroke="white"/>
<path opacity="0.4" d="M112.998 768.5V788.5H99.498V780H92.498" stroke="white"/>
<path opacity="0.4" d="M149.5 835.5H118V845H94V839.5H82.5V845H65.5V831.5H53.5V845H39.5" stroke="white"/>
<path opacity="0.4" d="M187.502 842.5H175.002V847H166.502V842.5H160.502V835.5" stroke="white"/>
<path opacity="0.4" d="M132.5 840.5V847H127.5V840.5" stroke="white"/>
<path opacity="0.4" d="M200 814.5V825.5H206V833H200V837.5H211.5" stroke="white"/>
<path opacity="0.4" d="M260 725.5V736.5H266V744H260V748.5H271.5" stroke="white"/>
<path opacity="0.4" d="M58.5 747.5V777H45V795.5" stroke="white"/>
<path opacity="0.4" d="M55.5 504V533.5H42V552" stroke="white"/>
<path opacity="0.4" d="M58.5 589V618.5H45V637" stroke="white"/>
<path opacity="0.4" d="M35.498 741V754H8.49805V727.5H16.498" stroke="white"/>
<path opacity="0.4" d="M35.498 506.5V519.5H8.49805V493H16.498" stroke="white"/>
<path opacity="0.4" d="M50.5 771.5H39V783H30" stroke="white"/>
<path opacity="0.4" d="M50.5 605H39V616.5H30" stroke="white"/>
<path opacity="0.4" d="M28.5 742.5V748H18V740" stroke="white"/>
<path opacity="0.4" d="M28.5 508V513.5H18V505.5" stroke="white"/>
<path opacity="0.4" d="M80 775V788H72.5" stroke="white"/>
<path opacity="0.4" d="M80 600.5V613.5H72.5" stroke="white"/>
<path opacity="0.4" d="M58.5 827H47.5V837.5" stroke="white"/>
<path opacity="0.4" d="M80 799V810H70.5" stroke="white"/>
<path opacity="0.4" d="M351.07 796.903H340.07V787.403" stroke="white"/>
<path opacity="0.4" d="M114 578V589H104.5" stroke="white"/>
<path opacity="0.4" d="M93.998 833.5H82.498V829" stroke="white"/>
<path opacity="0.4" d="M120 808.5V819H114V825.5H123V829.5" stroke="white"/>
<path opacity="0.4" d="M336 827V837.5H330V844H339V848" stroke="white"/>
<path opacity="0.4" d="M108 829.5V838.5H112.5" stroke="white"/>
<path opacity="0.4" d="M73.5 805.5H65V815H77" stroke="white"/>
<path opacity="0.4" d="M344.5 776.5V768H335V780" stroke="white"/>
<path opacity="0.4" d="M107.5 584.5H99V594H111" stroke="white"/>
<path opacity="0.4" d="M51.5 793V801H39V792" stroke="white"/>
<path opacity="0.4" d="M48.5 549.5V557.5H36V548.5" stroke="white"/>
<path opacity="0.4" d="M22 758.5V770.5H16" stroke="white"/>
<path opacity="0.4" d="M22 524V536H16" stroke="white"/>
<path opacity="0.4" d="M22 584V596H16" stroke="white"/>
<path opacity="0.4" d="M46.502 767H34.002V776.5" stroke="white"/>
<path opacity="0.4" d="M39 585L39 597.5L48.5 597.5" stroke="white"/>
<path opacity="0.4" d="M11.5 803V819.5H4.5V827.5H16V835.5" stroke="white"/>
<path opacity="0.4" d="M11.5 628.5V645H4.5V653H16V661" stroke="white"/>
<path opacity="0.4" d="M33 822V835H26V812.5H19" stroke="white"/>
<path opacity="0.4" d="M348 822V835H341V812.5H334" stroke="white"/>
<path opacity="0.4" d="M33 647.5V660.5H26V638H19" stroke="white"/>
<path opacity="0.4" d="M55 811H43V816.5H39" stroke="white"/>
<path opacity="0.4" d="M190 660.5H178V666H174" stroke="white"/>
<path opacity="0.4" d="M52 567.5H40V573H36" stroke="white"/>
<path opacity="0.4" d="M10 572.5L22 572.5L22 567L26 567" stroke="white"/>
<path opacity="0.4" d="M48.5 563H55V571H48.5" stroke="white"/>
<path opacity="0.4" d="M51.5 806.5H58V814.5H51.5" stroke="white"/>
<path opacity="0.4" d="M186.5 656H193V664H186.5" stroke="white"/>
<path opacity="0.4" d="M13.5 577L7 577L7 569L13.5 569" stroke="white"/>
<path opacity="0.4" d="M7 776.5V785H11.5V792.5H7" stroke="white"/>
<path opacity="0.4" d="M7 542V550.5H11.5V558H7" stroke="white"/>
<path opacity="0.4" d="M7 602V610.5H11.5V618H7" stroke="white"/>
<path opacity="0.4" d="M31.5 790V799.5H23.5V794.5" stroke="white"/>
<path opacity="0.4" d="M16.5 776.5H22V785H16.5V792" stroke="white"/>
<path opacity="0.4" d="M16.5 542H22V550.5H16.5V557.5" stroke="white"/>
<path opacity="0.4" d="M16.5 602H22V610.5H16.5V617.5" stroke="white"/>
<path opacity="0.4" d="M73 748V756H80.5V751.5" stroke="white"/>
<path opacity="0.4" d="M157.5 656L157.5 648L150 648L150 652.5" stroke="white"/>
<path opacity="0.4" d="M68.998 767.5V777H74.998" stroke="white"/>
<path opacity="0.4" d="M161.502 636.5L161.502 627L155.502 627" stroke="white"/>
<path opacity="0.4" d="M65.998 524V533.5H71.998" stroke="white"/>
<path opacity="0.4" d="M184.5 701V729.5H175" stroke="white"/>
<path opacity="0.4" d="M180 734.5H170V744H174.5" stroke="white"/>
<path opacity="0.4" d="M160 712V695.5H149.5V709H142.5" stroke="white"/>
<path opacity="0.4" d="M168.002 765.5C166.802 765.5 155.502 765.5 150.002 765.5V779H139.002" stroke="white"/>
<path opacity="0.4" d="M126 752V771.5H131.5" stroke="white"/>
<path opacity="0.4" d="M110.5 648V667.5H116" stroke="white"/>
<path opacity="0.4" d="M142 785H129V781" stroke="white"/>
<path opacity="0.4" d="M133 776.5H125" stroke="white"/>
<path opacity="0.4" d="M117.5 672.5H109.5" stroke="white"/>
<path opacity="0.4" d="M202.498 765.5V784.5" stroke="white"/>
<path opacity="0.4" d="M202.498 765.5H185.998" stroke="white"/>
<path opacity="0.4" d="M215.498 749.5V758.5H201.998V754.5" stroke="white"/>
<path opacity="0.4" d="M280.004 782L280.004 773L293.504 773L293.504 777" stroke="white"/>
<path opacity="0.4" d="M221.498 757V746.5H208.998V754.5" stroke="white"/>
<path opacity="0.4" d="M274.004 775L274.004 785.5L286.504 785.5L286.504 777.5" stroke="white"/>
<path opacity="0.4" d="M120.5 684V707.5H112V699.5" stroke="white"/>
<path opacity="0.4" d="M104 557L104 533.5L112.5 533.5L112.5 541.5" stroke="white"/>
<path opacity="0.4" d="M142.002 722.5V738.5H149.002V749.5" stroke="white"/>
<path opacity="0.4" d="M82.498 518.5L82.498 502.5L75.498 502.5L75.498 491.5" stroke="white"/>
<path opacity="0.4" d="M126.502 618.5V634.5H133.502V645.5" stroke="white"/>
<path opacity="0.4" d="M156.5 746.5V753H141V746.5" stroke="white"/>
<path opacity="0.4" d="M68 494.5L68 488L83.5 488L83.5 494.5" stroke="white"/>
<path opacity="0.4" d="M141 642.5V649H125.5V642.5" stroke="white"/>
<path opacity="0.4" d="M192.5 747V755.5H180.5V760.5" stroke="white"/>
<path opacity="0.4" d="M164.5 741.5V748H168.5V753H164V758.5H173.5" stroke="white"/>
<path opacity="0.4" d="M189.5 709H178V694H173" stroke="white"/>
<path opacity="0.4" d="M178.5 690.5H167.5V702H171.5" stroke="white"/>
<path opacity="0.4" d="M129 725V741H121.5V725" stroke="white"/>
<path opacity="0.4" d="M95.5 516L95.5 500L103 500L103 516" stroke="white"/>
<path opacity="0.4" d="M113.5 621V637H106V621" stroke="white"/>
<path opacity="0.4" d="M134.998 699.5V713H126.998V718" stroke="white"/>
<path opacity="0.4" d="M89.502 541.5L89.502 528L97.502 528L97.502 523" stroke="white"/>
<path opacity="0.4" d="M229.5 734H244V739" stroke="white"/>
<path opacity="0.4" d="M211 727H200.5V735.5H211" stroke="white"/>
<path opacity="0.4" d="M244 758.5V766H252" stroke="white"/>
<path opacity="0.4" d="M256 786.5H246V797H260" stroke="white"/>
<path opacity="0.4" d="M267 802.5V808.5H257V802.5" stroke="white"/>
<path opacity="0.4" d="M152.5 680H142.5V683.5H137.5V680H131V665H156.5" stroke="white"/>
<defs>
<filter id="filter0_d" x="-24" y="0" width="1488" height="871" filterUnits="userSpaceOnUse" color-interpolation-filters="sRGB">
<feFlood flood-opacity="0" result="BackgroundImageFix"/>
<feColorMatrix in="SourceAlpha" type="matrix" values="0 0 0 0 0 0 0 0 0 0 0 0 0 0 0 0 0 0 127 0" result="hardAlpha"/>
<feOffset dy="-4"/>
<feGaussianBlur stdDeviation="12"/>
<feColorMatrix type="matrix" values="0 0 0 0 0 0 0 0 0 0 0 0 0 0 0 0 0 0 0.04 0"/>
<feBlend mode="normal" in2="BackgroundImageFix" result="effect1_dropShadow"/>
<feBlend mode="normal" in="SourceGraphic" in2="effect1_dropShadow" result="shape"/>
</filter>
</defs>
</svg>
