<svg width="333" height="199" viewBox="0 0 333 199" fill="none" xmlns="http://www.w3.org/2000/svg">
<path opacity="0.56" d="M117 151.5V159H125.5V165.5" stroke="white"/>
<path opacity="0.56" d="M182.5 49.5V65H187.5V75H180V87" stroke="white"/>
<path opacity="0.56" d="M229.5 72.5V89.5H256" stroke="white"/>
<path opacity="0.56" d="M195.5 189H183V172H178.5" stroke="white"/>
<path opacity="0.56" d="M107.5 96V123.5H118.5" stroke="white"/>
<path opacity="0.56" d="M90 150H107V135.5H116" stroke="white"/>
<path opacity="0.56" d="M98 162.5V171.5H113" stroke="white"/>
<path opacity="0.56" d="M115 39.5V48.5H130" stroke="white"/>
<path opacity="0.56" d="M111.5 141H123.5V130.5" stroke="white"/>
<path opacity="0.56" d="M108.5 167H117.5V179.5H104.5V184.5" stroke="white"/>
<path opacity="0.56" d="M125.5 44H134.5V56.5H121.5V61.5" stroke="white"/>
<path opacity="0.56" d="M28 166.5V183.5H37.5V178H43.5" stroke="white"/>
<path opacity="0.56" d="M36.5 145H29V155H36.5" stroke="white"/>
<path opacity="0.56" d="M8.5 98.5H1V108.5H8.5" stroke="white"/>
<path opacity="0.56" d="M67.5 162.5H92V177.5H53V162.5H43" stroke="white"/>
<path opacity="0.56" d="M39.5 116H64V131H25V116H15" stroke="white"/>
<path opacity="0.56" d="M286 58H236.5V82.5H309V17H323V58" stroke="white"/>
<path opacity="0.56" d="M13 198.5V138.5H86M147.5 70H184.5" stroke="white"/>
<path opacity="0.56" d="M99 144.5V86.6012H142.417V20.5H201" stroke="white"/>
<path opacity="0.56" d="M264 32.5H296V70.5H289.77" stroke="white"/>
<path opacity="0.56" d="M23.5 149.5V189H142.5V119.5H180.5V136.5H217V108H251V149.5H240V165" stroke="white"/>
<path opacity="0.56" d="M247 156.5V169H231.5V149H207.5V176.5H194" stroke="white"/>
<path opacity="0.56" d="M148.5 126V149.5V164" stroke="white"/>
<path opacity="0.56" d="M148.5 126H174V143H185V154" stroke="white"/>
<path opacity="0.56" d="M33.5 151H60V169H84.5" stroke="white"/>
<path opacity="0.56" d="M5.5 104.5H32V122.5H56.5" stroke="white"/>
<path opacity="0.56" d="M278.5 41.5H255V22H287V6.5" stroke="white"/>
<path opacity="0.56" d="M178 150V163H193.5V142.5" stroke="white"/>
<path opacity="0.56" d="M154.5 142.5V174.5H165" stroke="white"/>
<path opacity="0.56" d="M149 182.5H170V168H161.5V159.5" stroke="white"/>
<path opacity="0.56" d="M280 16V1H296V18.5" stroke="white"/>
<path opacity="0.56" d="M242.5 64V76H265V69.5H272V76H281" stroke="white"/>
<path opacity="0.56" d="M247.5 62V71H253.5V67" stroke="white"/>
<path opacity="0.56" d="M224 116V136H237.5V127.5H244.5" stroke="white"/>
<path opacity="0.56" d="M187.5 183H219V192.5H243V187H254.5V192.5H271.5V179H283.5V192.5H297.5" stroke="white"/>
<path opacity="0.56" d="M149.5 190H162V194.5H170.5V190H176.5V183" stroke="white"/>
<path opacity="0.56" d="M204.5 188V194.5H209.5V188" stroke="white"/>
<path opacity="0.56" d="M137 162V173H131V180.5H137V185H125.5" stroke="white"/>
<path opacity="0.56" d="M278.5 95V124.5H292V143" stroke="white"/>
<path opacity="0.56" d="M301.5 88.5V101.5H328.5V75H320.5" stroke="white"/>
<path opacity="0.56" d="M286.5 119H298V130.5H307" stroke="white"/>
<path opacity="0.56" d="M308.5 90V95.5H319V87.5" stroke="white"/>
<path opacity="0.56" d="M257 122.5V135.5H264.5" stroke="white"/>
<path opacity="0.56" d="M278.5 174.5H289.5V185" stroke="white"/>
<path opacity="0.56" d="M257 146.5V157.5H266.5" stroke="white"/>
<path opacity="0.56" d="M243 181H254.5V176.5" stroke="white"/>
<path opacity="0.56" d="M217 156V166.5H223V173H214V177" stroke="white"/>
<path opacity="0.56" d="M229 177V186H224.5" stroke="white"/>
<path opacity="0.56" d="M263.5 153H272V162.5H260" stroke="white"/>
<path opacity="0.56" d="M285.5 140.5V148.5H298V139.5" stroke="white"/>
<path opacity="0.56" d="M315 106V118H321" stroke="white"/>
<path opacity="0.56" d="M290.5 114.5H303V124" stroke="white"/>
<path opacity="0.56" d="M325.5 150.5V167H332.5V175H321V183" stroke="white"/>
<path opacity="0.56" d="M304 169.5V182.5H311V160H318" stroke="white"/>
<path opacity="0.56" d="M282 158.5H294V164H298" stroke="white"/>
<path opacity="0.56" d="M285.5 154H279V162H285.5" stroke="white"/>
<path opacity="0.56" d="M330 124V132.5H325.5V140H330" stroke="white"/>
<path opacity="0.56" d="M305.5 137.5V147H313.5V142" stroke="white"/>
<path opacity="0.56" d="M320.5 124H315V132.5H320.5V139.5" stroke="white"/>
<path opacity="0.56" d="M266.5 97.5V105.5H259V101" stroke="white"/>
<path opacity="0.56" d="M268 115V124.5H262" stroke="white"/>
<path opacity="0.56" d="M152.5 48.5V77H162" stroke="white"/>
<path opacity="0.56" d="M157 82H167V91.5H162.5" stroke="white"/>
<path opacity="0.56" d="M177 59.5V43H187.5V56.5H194.5" stroke="white"/>
<path opacity="0.56" d="M169 113C170.2 113 181.5 113 187 113V126.5H198" stroke="white"/>
<path opacity="0.56" d="M211 99.5V119H205.5" stroke="white"/>
<path opacity="0.56" d="M195 132.5H208V128.5" stroke="white"/>
<path opacity="0.56" d="M204 124H212" stroke="white"/>
<path opacity="0.56" d="M134.5 113V132" stroke="white"/>
<path opacity="0.56" d="M134.5 113H151" stroke="white"/>
<path opacity="0.56" d="M121.5 97V106H135V102" stroke="white"/>
<path opacity="0.56" d="M115.5 104.5V94H128V102" stroke="white"/>
<path opacity="0.56" d="M216.5 31.5V55H225V47" stroke="white"/>
<path opacity="0.56" d="M195 70V86H188V97" stroke="white"/>
<path opacity="0.56" d="M180.5 94V100.5H196V94" stroke="white"/>
<path opacity="0.56" d="M144.5 94.5V103H156.5V108" stroke="white"/>
<path opacity="0.56" d="M172.5 89V95.5H168.5V100.5H173V106H163.5" stroke="white"/>
<path opacity="0.56" d="M147.5 56.5H159V41.5H164" stroke="white"/>
<path opacity="0.56" d="M158.5 38H169.5V49.5H165.5" stroke="white"/>
<path opacity="0.56" d="M208 72.5V88.5H215.5V72.5" stroke="white"/>
<path opacity="0.56" d="M202 47V60.5H210V65.5" stroke="white"/>
<path opacity="0.56" d="M107.5 81.5H93V86.5" stroke="white"/>
<path opacity="0.56" d="M126 74.5H136.5V83H126" stroke="white"/>
<path opacity="0.56" d="M93 106V113.5H85" stroke="white"/>
<path opacity="0.56" d="M81 134H91V144.5H77" stroke="white"/>
<path opacity="0.56" d="M70 150V156H80V150" stroke="white"/>
<path opacity="0.56" d="M42 103.5V109.5H52V103.5" stroke="white"/>
<path opacity="0.56" d="M184.5 27.5H194.5V31H199.5V27.5H206V12.5H180.5" stroke="white"/>
</svg>
