<svg width="320" height="144" viewBox="0 0 320 144" fill="none" xmlns="http://www.w3.org/2000/svg">
<g filter="url(#filter0_d)">
<rect x="24" y="12" width="272" height="96" rx="8" fill="white"/>
<path opacity="0.72" d="M129.233 31.8182V42H130.386V34.2642H130.486L133.668 42H134.781L137.963 34.2642H138.062V42H139.216V31.8182H137.744L134.284 40.2699H134.165L130.705 31.8182H129.233ZM144.631 42.1591C146.699 42.1591 148.091 40.5881 148.091 38.2216C148.091 35.8352 146.699 34.2642 144.631 34.2642C142.563 34.2642 141.171 35.8352 141.171 38.2216C141.171 40.5881 142.563 42.1591 144.631 42.1591ZM144.631 41.1051C143.06 41.1051 142.344 39.7528 142.344 38.2216C142.344 36.6903 143.06 35.3182 144.631 35.3182C146.202 35.3182 146.918 36.6903 146.918 38.2216C146.918 39.7528 146.202 41.1051 144.631 41.1051ZM151.056 37.4062C151.056 36.0739 151.881 35.3182 153.005 35.3182C154.093 35.3182 154.755 36.0291 154.755 37.2273V42H155.928V37.1477C155.928 35.1989 154.889 34.2642 153.343 34.2642C152.189 34.2642 151.473 34.7812 151.115 35.5568H151.016V34.3636H149.882V42H151.056V37.4062ZM161.274 42.1591C162.825 42.1591 163.958 41.3835 164.316 40.2301L163.183 39.9119C162.884 40.7074 162.193 41.1051 161.274 41.1051C159.896 41.1051 158.947 40.2152 158.892 38.5795H164.436V38.0824C164.436 35.2386 162.745 34.2642 161.154 34.2642C159.086 34.2642 157.714 35.8949 157.714 38.2415C157.714 40.5881 159.066 42.1591 161.274 42.1591ZM158.892 37.5653C158.972 36.3771 159.812 35.3182 161.154 35.3182C162.427 35.3182 163.242 36.2727 163.242 37.5653H158.892ZM166.744 44.8636C167.803 44.8636 168.548 44.3018 168.991 43.1136L172.242 34.3835L170.96 34.3636L168.852 40.4489H168.772L166.664 34.3636H165.391L168.215 42.0398L167.996 42.6364C167.569 43.7997 167.042 43.9091 166.187 43.6903L165.888 44.7244C166.008 44.7841 166.346 44.8636 166.744 44.8636ZM183.459 34.3636H184.653C184.598 32.8274 183.181 31.679 181.212 31.679C179.263 31.679 177.732 32.8125 177.732 34.5227C177.732 35.8949 178.726 36.7102 180.317 37.1676L181.57 37.5256C182.644 37.8239 183.599 38.2017 183.599 39.2159C183.599 40.3295 182.525 41.0653 181.113 41.0653C179.9 41.0653 178.826 40.5284 178.726 39.375H177.454C177.573 41.0455 178.925 42.179 181.113 42.179C183.459 42.179 184.792 40.8864 184.792 39.2358C184.792 37.3267 182.982 36.7102 181.928 36.4318L180.894 36.1534C180.138 35.9545 178.925 35.5568 178.925 34.4631C178.925 33.4886 179.82 32.7727 181.172 32.7727C182.405 32.7727 183.34 33.3594 183.459 34.3636ZM188.907 42.179C190.239 42.179 190.935 41.4631 191.174 40.9659H191.234V42H192.407V36.9688C192.407 34.5426 190.558 34.2642 189.583 34.2642C188.43 34.2642 187.117 34.6619 186.521 36.054L187.634 36.4517C187.893 35.8949 188.504 35.2983 189.623 35.2983C190.702 35.2983 191.234 35.87 191.234 36.8494V36.8892C191.234 37.456 190.657 37.4062 189.265 37.5852C187.848 37.7692 186.302 38.0824 186.302 39.8324C186.302 41.3239 187.455 42.179 188.907 42.179ZM189.086 41.125C188.151 41.125 187.475 40.7074 187.475 39.892C187.475 38.9972 188.29 38.7188 189.205 38.5994C189.702 38.5398 191.035 38.4006 191.234 38.1619V39.2358C191.234 40.1903 190.478 41.125 189.086 41.125ZM200.519 34.3636H199.247L197.139 40.4489H197.059L194.951 34.3636H193.678L196.502 42H197.695L200.519 34.3636ZM204.996 42.1591C206.547 42.1591 207.681 41.3835 208.039 40.2301L206.905 39.9119C206.607 40.7074 205.916 41.1051 204.996 41.1051C203.619 41.1051 202.67 40.2152 202.615 38.5795H208.158V38.0824C208.158 35.2386 206.468 34.2642 204.877 34.2642C202.809 34.2642 201.437 35.8949 201.437 38.2415C201.437 40.5881 202.789 42.1591 204.996 42.1591ZM202.615 37.5653C202.694 36.3771 203.535 35.3182 204.877 35.3182C206.15 35.3182 206.965 36.2727 206.965 37.5653H202.615ZM212.827 42.1591C214.298 42.1591 214.795 41.2443 215.054 40.8267H215.193V42H216.327V31.8182H215.153V35.5767H215.054C214.795 35.179 214.338 34.2642 212.846 34.2642C210.917 34.2642 209.585 35.7955 209.585 38.2017C209.585 40.6278 210.917 42.1591 212.827 42.1591ZM212.986 41.1051C211.514 41.1051 210.758 39.8125 210.758 38.1818C210.758 36.571 211.494 35.3182 212.986 35.3182C214.417 35.3182 215.173 36.4716 215.173 38.1818C215.173 39.9119 214.398 41.1051 212.986 41.1051Z" fill="#060B11"/>
<path d="M130.023 84H134.943V75.75H138.534L142.943 84H148.375L143.432 74.9545C146.08 73.8182 147.545 71.5114 147.545 68.3295C147.545 63.7045 144.489 60.7273 139.205 60.7273H130.023V84ZM134.943 71.7955V64.75H138.261C141.102 64.75 142.477 66.0114 142.477 68.3295C142.477 70.6364 141.102 71.7955 138.284 71.7955H134.943ZM165.455 71.5227C165.023 68.3068 162.432 66.3182 158.023 66.3182C153.557 66.3182 150.614 68.3864 150.625 71.75C150.614 74.3636 152.261 76.0568 155.67 76.7386L158.693 77.3409C160.216 77.6477 160.909 78.2045 160.932 79.0795C160.909 80.1136 159.784 80.8523 158.091 80.8523C156.364 80.8523 155.216 80.1136 154.92 78.6932L150.159 78.9432C150.614 82.2841 153.455 84.3409 158.08 84.3409C162.602 84.3409 165.841 82.0341 165.852 78.5909C165.841 76.0682 164.193 74.5568 160.807 73.8636L157.648 73.2273C156.023 72.875 155.42 72.3182 155.432 71.4773C155.42 70.4318 156.602 69.75 158.102 69.75C159.784 69.75 160.784 70.6705 161.023 71.7955L165.455 71.5227ZM178.98 60.7273H174.355L168.594 64.375V68.7386L173.923 65.3977H174.06V84H178.98V60.7273ZM184.511 84H201.102V79.9773H191.33V79.8182L194.727 76.4886C199.511 72.125 200.795 69.9432 200.795 67.2955C200.795 63.2614 197.5 60.4091 192.511 60.4091C187.625 60.4091 184.273 63.3295 184.284 67.8977H188.955C188.943 65.6705 190.352 64.3068 192.477 64.3068C194.523 64.3068 196.045 65.5795 196.045 67.625C196.045 69.4773 194.909 70.75 192.795 72.7841L184.511 80.4545V84ZM213.168 84.3182C218.349 84.3182 221.872 80.9432 221.861 76.2386C221.872 71.7841 218.759 68.5795 214.565 68.5795C212.52 68.5795 210.759 69.4318 209.94 70.5795H209.804L210.406 64.75H220.577V60.7273H206.349L205.247 73L209.622 73.7841C210.338 72.8182 211.724 72.2159 213.099 72.2159C215.44 72.2273 217.122 73.9205 217.122 76.3636C217.122 78.7841 215.474 80.4545 213.168 80.4545C211.213 80.4545 209.634 79.2273 209.52 77.4205H204.747C204.838 81.4432 208.349 84.3182 213.168 84.3182ZM234.418 84.5114C240.27 84.5114 243.804 80.0568 243.815 72.3864C243.827 64.7727 240.247 60.4091 234.418 60.4091C228.577 60.4091 225.031 64.7614 225.02 72.3864C224.997 80.0341 228.554 84.5 234.418 84.5114ZM234.418 80.4318C231.747 80.4318 230.02 77.75 230.031 72.3864C230.043 67.1023 231.759 64.4432 234.418 64.4432C237.065 64.4432 238.793 67.1023 238.793 72.3864C238.804 77.75 237.077 80.4318 234.418 80.4318Z" fill="#060B11"/>
<g opacity="0.2" filter="url(#filter1_b)">
<rect x="40" y="28" width="64" height="64" rx="4" fill="#33E34F"/>
</g>
<path d="M72 45.3333V74.6666" stroke="#0C722F" stroke-width="2" stroke-linecap="round" stroke-linejoin="round"/>
<path d="M78.6667 50.6667H68.6667C67.429 50.6667 66.242 51.1584 65.3668 52.0335C64.4917 52.9087 64 54.0957 64 55.3334C64 56.571 64.4917 57.758 65.3668 58.6332C66.242 59.5084 67.429 60 68.6667 60H75.3333C76.571 60 77.758 60.4917 78.6332 61.3669C79.5083 62.242 80 63.429 80 64.6667C80 65.9044 79.5083 67.0914 78.6332 67.9665C77.758 68.8417 76.571 69.3334 75.3333 69.3334H64" stroke="#0C722F" stroke-width="2" stroke-linecap="round" stroke-linejoin="round"/>
</g>
<defs>
<filter id="filter0_d" x="0" y="0" width="320" height="144" filterUnits="userSpaceOnUse" color-interpolation-filters="sRGB">
<feFlood flood-opacity="0" result="BackgroundImageFix"/>
<feColorMatrix in="SourceAlpha" type="matrix" values="0 0 0 0 0 0 0 0 0 0 0 0 0 0 0 0 0 0 127 0" result="hardAlpha"/>
<feOffset dy="12"/>
<feGaussianBlur stdDeviation="12"/>
<feColorMatrix type="matrix" values="0 0 0 0 0 0 0 0 0 0 0 0 0 0 0 0 0 0 0.08 0"/>
<feBlend mode="normal" in2="BackgroundImageFix" result="effect1_dropShadow"/>
<feBlend mode="normal" in="SourceGraphic" in2="effect1_dropShadow" result="shape"/>
</filter>
<filter id="filter1_b" x="16" y="4" width="112" height="112" filterUnits="userSpaceOnUse" color-interpolation-filters="sRGB">
<feFlood flood-opacity="0" result="BackgroundImageFix"/>
<feGaussianBlur in="BackgroundImage" stdDeviation="12"/>
<feComposite in2="SourceAlpha" operator="in" result="effect1_backgroundBlur"/>
<feBlend mode="normal" in="SourceGraphic" in2="effect1_backgroundBlur" result="shape"/>
</filter>
</defs>
</svg>
