<svg width="24" height="24" viewBox="0 0 24 24" fill="none" xmlns="http://www.w3.org/2000/svg">
<path d="M7.99889 17H20.9989C21.2538 17.0003 21.4989 17.0979 21.6843 17.2728C21.8696 17.4478 21.9811 17.687 21.9961 17.9414C22.011 18.1958 21.9282 18.4464 21.7646 18.6418C21.601 18.8373 21.369 18.9629 21.1159 18.993L20.9989 19H7.99889C7.74401 18.9997 7.49886 18.9021 7.31352 18.7272C7.12819 18.5522 7.01666 18.313 7.00172 18.0586C6.98678 17.8042 7.06957 17.5536 7.23316 17.3582C7.39675 17.1627 7.6288 17.0371 7.88189 17.007L7.99889 17ZM2.99889 11L20.9989 10.998C21.2538 10.9983 21.4989 11.0959 21.6843 11.2708C21.8696 11.4458 21.9811 11.685 21.9961 11.9394C22.011 12.1938 21.9282 12.4444 21.7646 12.6398C21.601 12.8353 21.369 12.9609 21.1159 12.991L20.9989 12.998L2.99889 13C2.74401 12.9997 2.49886 12.9021 2.31352 12.7272C2.12819 12.5522 2.01666 12.313 2.00172 12.0586C1.98678 11.8042 2.06957 11.5536 2.23316 11.3582C2.39675 11.1627 2.6288 11.0371 2.88189 11.007L2.99889 11ZM7.99889 5H20.9989C21.2538 5.00028 21.4989 5.09788 21.6843 5.27285C21.8696 5.44782 21.9811 5.68695 21.9961 5.94139C22.011 6.19584 21.9282 6.44638 21.7646 6.64183C21.601 6.83729 21.369 6.9629 21.1159 6.993L20.9989 7H7.99889C7.74401 6.99972 7.49886 6.90212 7.31352 6.72715C7.12819 6.55218 7.01666 6.31305 7.00172 6.05861C6.98678 5.80416 7.06957 5.55362 7.23316 5.35817C7.39675 5.16271 7.6288 5.0371 7.88189 5.007L7.99889 5Z" fill="black"/>
</svg>
