<svg width="304" height="144" viewBox="0 0 304 144" fill="none" xmlns="http://www.w3.org/2000/svg">
<g filter="url(#filter0_d)">
<rect x="24" y="12" width="256" height="96" rx="8" fill="white"/>
<path opacity="0.72" d="M137.307 31.8182H136.094V39.8324H135.994L130.426 31.8182H129.233V42H130.466V34.0057H130.565L136.114 42H137.307V31.8182ZM142.817 42.1591C144.368 42.1591 145.501 41.3835 145.859 40.2301L144.726 39.9119C144.427 40.7074 143.736 41.1051 142.817 41.1051C141.439 41.1051 140.49 40.2152 140.435 38.5795H145.979V38.0824C145.979 35.2386 144.288 34.2642 142.697 34.2642C140.629 34.2642 139.257 35.8949 139.257 38.2415C139.257 40.5881 140.609 42.1591 142.817 42.1591ZM140.435 37.5653C140.515 36.3771 141.355 35.3182 142.697 35.3182C143.97 35.3182 144.785 36.2727 144.785 37.5653H140.435ZM149.493 42H150.647L152.317 36.1335H152.437L154.107 42H155.26L157.587 34.3636H156.354L154.704 40.1903H154.624L153.013 34.3636H151.76L150.13 40.2102H150.05L148.4 34.3636H147.167L149.493 42ZM168.803 34.3636H169.996C169.942 32.8274 168.525 31.679 166.556 31.679C164.607 31.679 163.076 32.8125 163.076 34.5227C163.076 35.8949 164.07 36.7102 165.661 37.1676L166.914 37.5256C167.988 37.8239 168.942 38.2017 168.942 39.2159C168.942 40.3295 167.868 41.0653 166.456 41.0653C165.243 41.0653 164.17 40.5284 164.07 39.375H162.797C162.917 41.0455 164.269 42.179 166.456 42.179C168.803 42.179 170.135 40.8864 170.135 39.2358C170.135 37.3267 168.326 36.7102 167.272 36.4318L166.238 36.1534C165.482 35.9545 164.269 35.5568 164.269 34.4631C164.269 33.4886 165.164 32.7727 166.516 32.7727C167.749 32.7727 168.684 33.3594 168.803 34.3636ZM175.325 34.3636H173.694V32.5341H172.521V34.3636H171.367V35.358H172.521V40.1307C172.521 41.4631 173.594 42.0994 174.589 42.0994C175.026 42.0994 175.305 42.0199 175.464 41.9602L175.225 40.9062C175.126 40.9261 174.967 40.9659 174.708 40.9659C174.191 40.9659 173.694 40.8068 173.694 39.8125V35.358H175.325V34.3636ZM181.902 38.8778C181.902 40.3097 180.808 40.9659 179.933 40.9659C178.959 40.9659 178.263 40.25 178.263 39.1364V34.3636H177.089V39.2159C177.089 41.1648 178.124 42.0994 179.555 42.0994C180.709 42.0994 181.464 41.483 181.822 40.7074H181.902V42H183.075V34.3636H181.902V38.8778ZM188.108 42.1591C189.579 42.1591 190.077 41.2443 190.335 40.8267H190.474V42H191.608V31.8182H190.434V35.5767H190.335C190.077 35.179 189.619 34.2642 188.128 34.2642C186.199 34.2642 184.866 35.7955 184.866 38.2017C184.866 40.6278 186.199 42.1591 188.108 42.1591ZM188.267 41.1051C186.795 41.1051 186.04 39.8125 186.04 38.1818C186.04 36.571 186.775 35.3182 188.267 35.3182C189.699 35.3182 190.454 36.4716 190.454 38.1818C190.454 39.9119 189.679 41.1051 188.267 41.1051ZM197.121 42.1591C198.672 42.1591 199.806 41.3835 200.164 40.2301L199.03 39.9119C198.732 40.7074 198.041 41.1051 197.121 41.1051C195.744 41.1051 194.795 40.2152 194.74 38.5795H200.283V38.0824C200.283 35.2386 198.593 34.2642 197.002 34.2642C194.934 34.2642 193.562 35.8949 193.562 38.2415C193.562 40.5881 194.914 42.1591 197.121 42.1591ZM194.74 37.5653C194.819 36.3771 195.66 35.3182 197.002 35.3182C198.275 35.3182 199.09 36.2727 199.09 37.5653H194.74ZM203.241 37.4062C203.241 36.0739 204.067 35.3182 205.19 35.3182C206.279 35.3182 206.94 36.0291 206.94 37.2273V42H208.113V37.1477C208.113 35.1989 207.074 34.2642 205.528 34.2642C204.375 34.2642 203.659 34.7812 203.301 35.5568H203.202V34.3636H202.068V42H203.241V37.4062ZM213.578 34.3636H211.948V32.5341H210.775V34.3636H209.621V35.358H210.775V40.1307C210.775 41.4631 211.848 42.0994 212.843 42.0994C213.28 42.0994 213.559 42.0199 213.718 41.9602L213.479 40.9062C213.38 40.9261 213.221 40.9659 212.962 40.9659C212.445 40.9659 211.948 40.8068 211.948 39.8125V35.358H213.578V34.3636ZM220.616 36.0739C220.248 34.9901 219.423 34.2642 217.911 34.2642C216.3 34.2642 215.107 35.179 215.107 36.4716C215.107 37.5256 215.734 38.2315 217.136 38.5597L218.408 38.858C219.179 39.0369 219.542 39.4048 219.542 39.9318C219.542 40.5881 218.846 41.125 217.752 41.125C216.793 41.125 216.191 40.7124 215.982 39.892L214.869 40.1705C215.142 41.468 216.211 42.1591 217.772 42.1591C219.547 42.1591 220.755 41.1896 220.755 39.8722C220.755 38.8082 220.089 38.1371 218.727 37.804L217.593 37.5256C216.688 37.3018 216.281 36.9986 216.281 36.4119C216.281 35.7557 216.977 35.2784 217.911 35.2784C218.935 35.2784 219.358 35.8452 219.562 36.3722L220.616 36.0739Z" fill="#060B11"/>
<path d="M129.886 84H146.477V79.9773H136.705V79.8182L140.102 76.4886C144.886 72.125 146.17 69.9432 146.17 67.2955C146.17 63.2614 142.875 60.4091 137.886 60.4091C133 60.4091 129.648 63.3295 129.659 67.8977H134.33C134.318 65.6705 135.727 64.3068 137.852 64.3068C139.898 64.3068 141.42 65.5795 141.42 67.625C141.42 69.4773 140.284 70.75 138.17 72.7841L129.886 80.4545V84ZM158.543 84.3182C163.724 84.3182 167.247 80.9432 167.236 76.2386C167.247 71.7841 164.134 68.5795 159.94 68.5795C157.895 68.5795 156.134 69.4318 155.315 70.5795H155.179L155.781 64.75H165.952V60.7273H151.724L150.622 73L154.997 73.7841C155.713 72.8182 157.099 72.2159 158.474 72.2159C160.815 72.2273 162.497 73.9205 162.497 76.3636C162.497 78.7841 160.849 80.4545 158.543 80.4545C156.588 80.4545 155.009 79.2273 154.895 77.4205H150.122C150.213 81.4432 153.724 84.3182 158.543 84.3182ZM179.349 84.3182C184.599 84.3182 188.372 81.5114 188.384 77.7386C188.372 74.8295 186.134 72.4545 183.338 71.9886V71.8295C185.77 71.3295 187.509 69.2273 187.52 66.6705C187.509 63.0682 184.054 60.4091 179.349 60.4091C174.634 60.4091 171.179 63.0682 171.19 66.6705C171.179 69.2159 172.895 71.3295 175.372 71.8295V71.9886C172.531 72.4545 170.315 74.8295 170.327 77.7386C170.315 81.5114 174.099 84.3182 179.349 84.3182ZM179.349 80.7045C177.009 80.7045 175.44 79.3182 175.44 77.3523C175.44 75.3409 177.088 73.8864 179.349 73.8864C181.599 73.8864 183.259 75.3409 183.259 77.3523C183.259 79.3295 181.679 80.7045 179.349 80.7045ZM179.349 70.3068C177.384 70.3068 175.986 69.0227 175.986 67.1818C175.986 65.3636 177.361 64.1136 179.349 64.1136C181.327 64.1136 182.713 65.375 182.713 67.1818C182.713 69.0227 181.304 70.3068 179.349 70.3068ZM198.778 80.4545H202.847V74.4432H208.858V70.375H202.847V64.3636H198.778V70.375H192.767V74.4432H198.778V80.4545Z" fill="#060B11"/>
<g filter="url(#filter1_b)">
<rect x="40" y="28" width="64" height="64" rx="4" fill="#EEEBFF"/>
</g>
</g>
<path d="M86.6666 52L74 64.6667L67.3333 58L57.3333 68" stroke="#332FCF" stroke-width="2" stroke-linecap="round" stroke-linejoin="round"/>
<path d="M78.6666 52H86.6666V60" stroke="#332FCF" stroke-width="2" stroke-linecap="round" stroke-linejoin="round"/>
<defs>
<filter id="filter0_d" x="0" y="0" width="304" height="144" filterUnits="userSpaceOnUse" color-interpolation-filters="sRGB">
<feFlood flood-opacity="0" result="BackgroundImageFix"/>
<feColorMatrix in="SourceAlpha" type="matrix" values="0 0 0 0 0 0 0 0 0 0 0 0 0 0 0 0 0 0 127 0" result="hardAlpha"/>
<feOffset dy="12"/>
<feGaussianBlur stdDeviation="12"/>
<feColorMatrix type="matrix" values="0 0 0 0 0 0 0 0 0 0 0 0 0 0 0 0 0 0 0.08 0"/>
<feBlend mode="normal" in2="BackgroundImageFix" result="effect1_dropShadow"/>
<feBlend mode="normal" in="SourceGraphic" in2="effect1_dropShadow" result="shape"/>
</filter>
<filter id="filter1_b" x="16" y="4" width="112" height="112" filterUnits="userSpaceOnUse" color-interpolation-filters="sRGB">
<feFlood flood-opacity="0" result="BackgroundImageFix"/>
<feGaussianBlur in="BackgroundImage" stdDeviation="12"/>
<feComposite in2="SourceAlpha" operator="in" result="effect1_backgroundBlur"/>
<feBlend mode="normal" in="SourceGraphic" in2="effect1_backgroundBlur" result="shape"/>
</filter>
</defs>
</svg>
