<svg width="304" height="144" viewBox="0 0 304 144" fill="none" xmlns="http://www.w3.org/2000/svg">
<g filter="url(#filter0_d)">
<rect x="24" y="12" width="256" height="96" rx="8" fill="white"/>
<path opacity="0.72" d="M134.801 34.3636H135.994C135.94 32.8274 134.523 31.679 132.554 31.679C130.605 31.679 129.074 32.8125 129.074 34.5227C129.074 35.8949 130.068 36.7102 131.659 37.1676L132.912 37.5256C133.986 37.8239 134.94 38.2017 134.94 39.2159C134.94 40.3295 133.866 41.0653 132.455 41.0653C131.241 41.0653 130.168 40.5284 130.068 39.375H128.795C128.915 41.0455 130.267 42.179 132.455 42.179C134.801 42.179 136.134 40.8864 136.134 39.2358C136.134 37.3267 134.324 36.7102 133.27 36.4318L132.236 36.1534C131.48 35.9545 130.267 35.5568 130.267 34.4631C130.267 33.4886 131.162 32.7727 132.514 32.7727C133.747 32.7727 134.682 33.3594 134.801 34.3636ZM141.323 34.3636H139.692V32.5341H138.519V34.3636H137.365V35.358H138.519V40.1307C138.519 41.4631 139.593 42.0994 140.587 42.0994C141.024 42.0994 141.303 42.0199 141.462 41.9602L141.223 40.9062C141.124 40.9261 140.965 40.9659 140.706 40.9659C140.189 40.9659 139.692 40.8068 139.692 39.8125V35.358H141.323V34.3636ZM147.9 38.8778C147.9 40.3097 146.806 40.9659 145.931 40.9659C144.957 40.9659 144.261 40.25 144.261 39.1364V34.3636H143.088V39.2159C143.088 41.1648 144.122 42.0994 145.553 42.0994C146.707 42.0994 147.463 41.483 147.82 40.7074H147.9V42H149.073V34.3636H147.9V38.8778ZM154.106 42.1591C155.577 42.1591 156.075 41.2443 156.333 40.8267H156.472V42H157.606V31.8182H156.433V35.5767H156.333C156.075 35.179 155.617 34.2642 154.126 34.2642C152.197 34.2642 150.864 35.7955 150.864 38.2017C150.864 40.6278 152.197 42.1591 154.106 42.1591ZM154.265 41.1051C152.793 41.1051 152.038 39.8125 152.038 38.1818C152.038 36.571 152.773 35.3182 154.265 35.3182C155.697 35.3182 156.452 36.4716 156.452 38.1818C156.452 39.9119 155.677 41.1051 154.265 41.1051ZM163.119 42.1591C164.67 42.1591 165.804 41.3835 166.162 40.2301L165.028 39.9119C164.73 40.7074 164.039 41.1051 163.119 41.1051C161.742 41.1051 160.793 40.2152 160.738 38.5795H166.281V38.0824C166.281 35.2386 164.591 34.2642 163 34.2642C160.932 34.2642 159.56 35.8949 159.56 38.2415C159.56 40.5881 160.912 42.1591 163.119 42.1591ZM160.738 37.5653C160.817 36.3771 161.658 35.3182 163 35.3182C164.273 35.3182 165.088 36.2727 165.088 37.5653H160.738ZM169.239 37.4062C169.239 36.0739 170.065 35.3182 171.188 35.3182C172.277 35.3182 172.938 36.0291 172.938 37.2273V42H174.112V37.1477C174.112 35.1989 173.072 34.2642 171.526 34.2642C170.373 34.2642 169.657 34.7812 169.299 35.5568H169.2V34.3636H168.066V42H169.239V37.4062ZM179.577 34.3636H177.946V32.5341H176.773V34.3636H175.619V35.358H176.773V40.1307C176.773 41.4631 177.846 42.0994 178.841 42.0994C179.278 42.0994 179.557 42.0199 179.716 41.9602L179.477 40.9062C179.378 40.9261 179.219 40.9659 178.96 40.9659C178.443 40.9659 177.946 40.8068 177.946 39.8125V35.358H179.577V34.3636ZM186.614 36.0739C186.246 34.9901 185.421 34.2642 183.909 34.2642C182.298 34.2642 181.105 35.179 181.105 36.4716C181.105 37.5256 181.732 38.2315 183.134 38.5597L184.406 38.858C185.177 39.0369 185.54 39.4048 185.54 39.9318C185.54 40.5881 184.844 41.125 183.75 41.125C182.791 41.125 182.189 40.7124 181.98 39.892L180.867 40.1705C181.14 41.468 182.209 42.1591 183.77 42.1591C185.545 42.1591 186.753 41.1896 186.753 39.8722C186.753 38.8082 186.087 38.1371 184.725 37.804L183.591 37.5256C182.686 37.3018 182.279 36.9986 182.279 36.4119C182.279 35.7557 182.975 35.2784 183.909 35.2784C184.933 35.2784 185.356 35.8452 185.56 36.3722L186.614 36.0739Z" fill="#060B11"/>
<path d="M140.011 60.7273H135.386L129.625 64.375V68.7386L134.955 65.3977H135.091V84H140.011V60.7273ZM145.543 84H162.134V79.9773H152.361V79.8182L155.759 76.4886C160.543 72.125 161.827 69.9432 161.827 67.2955C161.827 63.2614 158.531 60.4091 153.543 60.4091C148.656 60.4091 145.304 63.3295 145.315 67.8977H149.986C149.974 65.6705 151.384 64.3068 153.509 64.3068C155.554 64.3068 157.077 65.5795 157.077 67.625C157.077 69.4773 155.94 70.75 153.827 72.7841L145.543 80.4545V84ZM172.653 80.4545H176.722V74.4432H182.733V70.375H176.722V64.3636H172.653V70.375H166.642V74.4432H172.653V80.4545Z" fill="#060B11"/>
<g opacity="0.2" filter="url(#filter1_b)">
<rect x="40" y="28" width="64" height="64" rx="4" fill="#FF6F6F"/>
</g>
</g>
<path d="M86.6666 52L73.9999 64.6667L67.3333 58L57.3333 68" stroke="#CA3026" stroke-width="2" stroke-linecap="round" stroke-linejoin="round"/>
<path d="M78.6667 52H86.6667V60" stroke="#CA3026" stroke-width="2" stroke-linecap="round" stroke-linejoin="round"/>
<defs>
<filter id="filter0_d" x="0" y="0" width="304" height="144" filterUnits="userSpaceOnUse" color-interpolation-filters="sRGB">
<feFlood flood-opacity="0" result="BackgroundImageFix"/>
<feColorMatrix in="SourceAlpha" type="matrix" values="0 0 0 0 0 0 0 0 0 0 0 0 0 0 0 0 0 0 127 0" result="hardAlpha"/>
<feOffset dy="12"/>
<feGaussianBlur stdDeviation="12"/>
<feColorMatrix type="matrix" values="0 0 0 0 0 0 0 0 0 0 0 0 0 0 0 0 0 0 0.08 0"/>
<feBlend mode="normal" in2="BackgroundImageFix" result="effect1_dropShadow"/>
<feBlend mode="normal" in="SourceGraphic" in2="effect1_dropShadow" result="shape"/>
</filter>
<filter id="filter1_b" x="16" y="4" width="112" height="112" filterUnits="userSpaceOnUse" color-interpolation-filters="sRGB">
<feFlood flood-opacity="0" result="BackgroundImageFix"/>
<feGaussianBlur in="BackgroundImage" stdDeviation="12"/>
<feComposite in2="SourceAlpha" operator="in" result="effect1_backgroundBlur"/>
<feBlend mode="normal" in="SourceGraphic" in2="effect1_backgroundBlur" result="shape"/>
</filter>
</defs>
</svg>
