<svg width="160" height="131" viewBox="0 0 160 131" fill="none" xmlns="http://www.w3.org/2000/svg">
<path d="M134.683 46.6429C137.127 43.5047 142.114 38.0651 142.505 41.4125C142.994 45.5968 135.66 37.2281 139.083 36.1821" stroke="#F2994A" stroke-linecap="round"/>
<path d="M34.6302 32.9048L36.3422 29.3753L39.4437 31.9697L37.7317 35.4992L34.6302 32.9048Z" fill="#9B51E0"/>
<path d="M127.492 113.638L130.109 110.716L132.377 114.063L129.76 116.985L127.492 113.638Z" fill="#56CCF2"/>
<path d="M76.1483 10.2858C73.7497 7.11242 69.7861 0.887886 73.1207 1.37649C77.2889 1.98724 67.3074 6.90461 67.1827 3.3283" stroke="black" stroke-linecap="round"/>
<path d="M59.9334 113.33C58.2879 116.952 54.7068 123.404 53.5461 120.24C52.0953 116.285 61.1774 122.714 58.0934 124.529" stroke="#F2994A" stroke-linecap="round"/>
<path d="M38.5458 99.5214L37.9205 95.6488L41.9495 95.9916L42.5748 99.8643L38.5458 99.5214Z" fill="#56CCF2"/>
<path d="M121.137 40.3042L118.992 37.0203L122.812 35.6955L124.958 38.9794L121.137 40.3042Z" fill="#EB5757"/>
<path d="M89.7546 113.53L87.6088 110.246L91.4292 108.921L93.5749 112.205L89.7546 113.53Z" fill="#9B51E0"/>
<g filter="url(#filter0_b)">
<circle cx="79.7639" cy="60.9802" r="47.1193" fill="#5CC689"/>
</g>
<path d="M76.3932 78.2052C75.9372 78.6636 75.3154 78.9197 74.6693 78.9197C74.0231 78.9197 73.4013 78.6636 72.9453 78.2052L59.1781 64.4356C57.7492 63.0067 57.7492 60.6902 59.1781 59.2637L60.9021 57.5398C62.331 56.1109 64.645 56.1109 66.0739 57.5398L74.6693 66.1351L97.895 42.9094C99.3239 41.4805 101.64 41.4805 103.067 42.9094L104.791 44.6333C106.22 46.0622 106.22 48.3787 104.791 49.8052L76.3932 78.2052Z" fill="white"/>
<circle cx="1.9614" cy="61.6803" r="1.9614" fill="#F2C94C"/>
<circle cx="107.877" cy="2.83823" r="1.9614" fill="#9B51E0"/>
<circle cx="109.185" cy="11.9914" r="0.653801" fill="#EB5757"/>
<circle cx="77.8022" cy="129.676" r="0.653801" fill="#27AE60"/>
<circle cx="154.951" cy="76.064" r="0.653801" fill="#F2C94C"/>
<circle cx="47.727" cy="4.14581" r="0.653801" fill="#F2994A"/>
<circle cx="157.566" cy="59.0651" r="1.9614" fill="#EB5757"/>
<path d="M20.777 98.4887C18.9297 97.8466 15.718 98.1335 15.0201 100.402C14.3222 102.67 12.6675 101.288 11.9274 100.314" stroke="#2D9CDB" stroke-linecap="round"/>
<path d="M142.164 82.9569C141.021 81.3705 138.227 79.7613 136.353 81.2178C134.479 82.6743 133.918 80.5926 133.871 79.3696" stroke="#2D9CDB" stroke-linecap="round"/>
<path d="M17.3315 24.1214C16.3527 22.4281 13.7342 20.5466 11.7235 21.8077C9.71286 23.0688 9.36358 20.9412 9.44028 19.7197" stroke="#EB5757" stroke-linecap="round"/>
<path d="M124.222 14.8874C126.165 15.1121 129.237 14.1332 129.425 11.7672C129.612 9.40116 131.528 10.3902 132.462 11.1804" stroke="#56CCF2" stroke-linecap="round"/>
<defs>
<filter id="filter0_b" x="8.64453" y="-10.1391" width="142.239" height="142.239" filterUnits="userSpaceOnUse" color-interpolation-filters="sRGB">
<feFlood flood-opacity="0" result="BackgroundImageFix"/>
<feGaussianBlur in="BackgroundImage" stdDeviation="12"/>
<feComposite in2="SourceAlpha" operator="in" result="effect1_backgroundBlur"/>
<feBlend mode="normal" in="SourceGraphic" in2="effect1_backgroundBlur" result="shape"/>
</filter>
</defs>
</svg>
