<svg width="320" height="144" viewBox="0 0 320 144" fill="none" xmlns="http://www.w3.org/2000/svg">
<g filter="url(#filter0_d)">
<rect x="24" y="12" width="272" height="96" rx="8" fill="white"/>
<path d="M128.358 31.8182L132.037 37.804V42H133.27V37.804L136.949 31.8182H135.537L132.713 36.571H132.594L129.77 31.8182H128.358ZM140.407 42.1591C142.475 42.1591 143.867 40.5881 143.867 38.2216C143.867 35.8352 142.475 34.2642 140.407 34.2642C138.338 34.2642 136.946 35.8352 136.946 38.2216C136.946 40.5881 138.338 42.1591 140.407 42.1591ZM140.407 41.1051C138.836 41.1051 138.12 39.7528 138.12 38.2216C138.12 36.6903 138.836 35.3182 140.407 35.3182C141.978 35.3182 142.694 36.6903 142.694 38.2216C142.694 39.7528 141.978 41.1051 140.407 41.1051ZM150.47 38.8778C150.47 40.3097 149.377 40.9659 148.502 40.9659C147.527 40.9659 146.831 40.25 146.831 39.1364V34.3636H145.658V39.2159C145.658 41.1648 146.692 42.0994 148.124 42.0994C149.277 42.0994 150.033 41.483 150.391 40.7074H150.47V42H151.644V34.3636H150.47V38.8778ZM163.457 34.3636H164.651C164.596 32.8274 163.179 31.679 161.21 31.679C159.261 31.679 157.73 32.8125 157.73 34.5227C157.73 35.8949 158.724 36.7102 160.315 37.1676L161.568 37.5256C162.642 37.8239 163.597 38.2017 163.597 39.2159C163.597 40.3295 162.523 41.0653 161.111 41.0653C159.898 41.0653 158.824 40.5284 158.724 39.375H157.452C157.571 41.0455 158.923 42.179 161.111 42.179C163.457 42.179 164.79 40.8864 164.79 39.2358C164.79 37.3267 162.98 36.7102 161.926 36.4318L160.892 36.1534C160.136 35.9545 158.923 35.5568 158.923 34.4631C158.923 33.4886 159.818 32.7727 161.17 32.7727C162.403 32.7727 163.338 33.3594 163.457 34.3636ZM168.905 42.179C170.237 42.179 170.933 41.4631 171.172 40.9659H171.232V42H172.405V36.9688C172.405 34.5426 170.556 34.2642 169.581 34.2642C168.428 34.2642 167.115 34.6619 166.519 36.054L167.632 36.4517C167.891 35.8949 168.502 35.2983 169.621 35.2983C170.7 35.2983 171.232 35.87 171.232 36.8494V36.8892C171.232 37.456 170.655 37.4062 169.263 37.5852C167.846 37.7692 166.3 38.0824 166.3 39.8324C166.3 41.3239 167.453 42.179 168.905 42.179ZM169.084 41.125C168.149 41.125 167.473 40.7074 167.473 39.892C167.473 38.9972 168.289 38.7188 169.203 38.5994C169.7 38.5398 171.033 38.4006 171.232 38.1619V39.2358C171.232 40.1903 170.476 41.125 169.084 41.125ZM180.517 34.3636H179.245L177.137 40.4489H177.057L174.949 34.3636H173.676L176.5 42H177.694L180.517 34.3636ZM184.994 42.1591C186.545 42.1591 187.679 41.3835 188.037 40.2301L186.903 39.9119C186.605 40.7074 185.914 41.1051 184.994 41.1051C183.617 41.1051 182.668 40.2152 182.613 38.5795H188.156V38.0824C188.156 35.2386 186.466 34.2642 184.875 34.2642C182.807 34.2642 181.435 35.8949 181.435 38.2415C181.435 40.5881 182.787 42.1591 184.994 42.1591ZM182.613 37.5653C182.692 36.3771 183.533 35.3182 184.875 35.3182C186.148 35.3182 186.963 36.2727 186.963 37.5653H182.613Z" fill="#060B11"/>
<path d="M130.023 84H134.943V75.75H138.534L142.943 84H148.375L143.432 74.9545C146.08 73.8182 147.545 71.5114 147.545 68.3295C147.545 63.7045 144.489 60.7273 139.205 60.7273H130.023V84ZM134.943 71.7955V64.75H138.261C141.102 64.75 142.477 66.0114 142.477 68.3295C142.477 70.6364 141.102 71.7955 138.284 71.7955H134.943ZM165.455 71.5227C165.023 68.3068 162.432 66.3182 158.023 66.3182C153.557 66.3182 150.614 68.3864 150.625 71.75C150.614 74.3636 152.261 76.0568 155.67 76.7386L158.693 77.3409C160.216 77.6477 160.909 78.2045 160.932 79.0795C160.909 80.1136 159.784 80.8523 158.091 80.8523C156.364 80.8523 155.216 80.1136 154.92 78.6932L150.159 78.9432C150.614 82.2841 153.455 84.3409 158.08 84.3409C162.602 84.3409 165.841 82.0341 165.852 78.5909C165.841 76.0682 164.193 74.5568 160.807 73.8636L157.648 73.2273C156.023 72.875 155.42 72.3182 155.432 71.4773C155.42 70.4318 156.602 69.75 158.102 69.75C159.784 69.75 160.784 70.6705 161.023 71.7955L165.455 71.5227ZM177.787 84.3182C182.969 84.3409 186.503 80.9432 186.491 76.2045C186.503 71.8409 183.457 68.6932 179.332 68.6932C176.776 68.6932 174.514 69.9205 173.469 71.9773H173.31C173.332 67.4432 174.923 64.625 177.957 64.625C179.741 64.625 181.026 65.6023 181.401 67.2273H186.253C185.787 63.3977 182.605 60.4091 177.957 60.4091C172.207 60.4091 168.514 65.0682 168.491 72.8864C168.48 81.4091 173.003 84.2955 177.787 84.3182ZM177.764 80.4545C175.491 80.4545 173.81 78.625 173.81 76.3523C173.821 74.0909 175.537 72.25 177.798 72.25C180.071 72.25 181.73 74.0341 181.719 76.3409C181.73 78.6705 180.037 80.4545 177.764 80.4545ZM190.901 84H195.98L205.639 64.8068V60.7273H189.31V64.75H200.548V64.9091L190.901 84ZM217.119 60.4091C211.915 60.3864 208.403 63.7955 208.426 68.4773C208.438 72.8182 211.449 75.9659 215.574 75.9659C218.131 75.9659 220.403 74.7273 221.438 72.6818H221.597C221.585 77.2955 219.983 80.1023 216.949 80.1023C215.165 80.1023 213.881 79.125 213.506 77.4318H208.653C209.108 81.3523 212.29 84.3182 216.949 84.3182C222.71 84.3182 226.426 79.6591 226.415 71.7614C226.403 63.3295 221.903 60.4318 217.119 60.4091ZM217.153 64.2727C219.415 64.2727 221.085 66.1136 221.108 68.3295C221.119 70.5568 219.358 72.3977 217.108 72.3977C214.835 72.3977 213.21 70.625 213.199 68.3409C213.176 66.0682 214.869 64.2727 217.153 64.2727ZM238.949 84.5114C244.801 84.5114 248.335 80.0568 248.347 72.3864C248.358 64.7727 244.778 60.4091 238.949 60.4091C233.108 60.4091 229.562 64.7614 229.551 72.3864C229.528 80.0341 233.085 84.5 238.949 84.5114ZM238.949 80.4318C236.278 80.4318 234.551 77.75 234.562 72.3864C234.574 67.1023 236.29 64.4432 238.949 64.4432C241.597 64.4432 243.324 67.1023 243.324 72.3864C243.335 77.75 241.608 80.4318 238.949 80.4318ZM260.98 84.5114C266.832 84.5114 270.366 80.0568 270.378 72.3864C270.389 64.7727 266.81 60.4091 260.98 60.4091C255.139 60.4091 251.594 64.7614 251.582 72.3864C251.56 80.0341 255.116 84.5 260.98 84.5114ZM260.98 80.4318C258.31 80.4318 256.582 77.75 256.594 72.3864C256.605 67.1023 258.321 64.4432 260.98 64.4432C263.628 64.4432 265.355 67.1023 265.355 72.3864C265.366 77.75 263.639 80.4318 260.98 80.4318Z" fill="#060B11"/>
<g opacity="0.2" filter="url(#filter1_b)">
<rect x="40" y="28" width="64" height="64" rx="4" fill="#33E34F"/>
</g>
<path d="M72 45.3333V74.6667" stroke="#0C722F" stroke-width="2" stroke-linecap="round" stroke-linejoin="round"/>
<path d="M78.6667 50.6667H68.6667C67.429 50.6667 66.242 51.1583 65.3668 52.0335C64.4917 52.9087 64 54.0956 64 55.3333C64 56.571 64.4917 57.758 65.3668 58.6332C66.242 59.5083 67.429 60 68.6667 60H75.3333C76.571 60 77.758 60.4917 78.6332 61.3668C79.5083 62.242 80 63.429 80 64.6667C80 65.9043 79.5083 67.0913 78.6332 67.9665C77.758 68.8417 76.571 69.3333 75.3333 69.3333H64" stroke="#0C722F" stroke-width="2" stroke-linecap="round" stroke-linejoin="round"/>
</g>
<defs>
<filter id="filter0_d" x="0" y="0" width="320" height="144" filterUnits="userSpaceOnUse" color-interpolation-filters="sRGB">
<feFlood flood-opacity="0" result="BackgroundImageFix"/>
<feColorMatrix in="SourceAlpha" type="matrix" values="0 0 0 0 0 0 0 0 0 0 0 0 0 0 0 0 0 0 127 0" result="hardAlpha"/>
<feOffset dy="12"/>
<feGaussianBlur stdDeviation="12"/>
<feColorMatrix type="matrix" values="0 0 0 0 0 0 0 0 0 0 0 0 0 0 0 0 0 0 0.08 0"/>
<feBlend mode="normal" in2="BackgroundImageFix" result="effect1_dropShadow"/>
<feBlend mode="normal" in="SourceGraphic" in2="effect1_dropShadow" result="shape"/>
</filter>
<filter id="filter1_b" x="16" y="4" width="112" height="112" filterUnits="userSpaceOnUse" color-interpolation-filters="sRGB">
<feFlood flood-opacity="0" result="BackgroundImageFix"/>
<feGaussianBlur in="BackgroundImage" stdDeviation="12"/>
<feComposite in2="SourceAlpha" operator="in" result="effect1_backgroundBlur"/>
<feBlend mode="normal" in="SourceGraphic" in2="effect1_backgroundBlur" result="shape"/>
</filter>
</defs>
</svg>
